<svg width="245" height="64" viewBox="0 0 245 64" fill="none" xmlns="http://www.w3.org/2000/svg">
<g clip-path="url(#clip0_213_629)">
<path d="M45.121 42.6362L49.2312 35.515L61.6532 56.8787H69.8735C68.0467 53.9573 50.6926 24.2853 49.2312 21.3638L31.3289 52.4051L24.6613 64H0C1.37007 61.7176 10.5952 45.6491 19.4549 30.2197C24.6613 21.1811 30.4155 11.0471 36.9005 0H45.121L28.1321 29.3981L12.3306 56.8787H20.551C31.7856 37.067 38.8187 25.381 49.2312 7.12126C49.8705 8.21683 82.0215 63.9086 82.2042 64H57.543L45.121 42.6362Z" fill="#4300FF"/>
<path d="M101.463 22.7796H106.991V40.9647H101.463V39.1461C101.218 39.7756 99.5739 41.3145 96.775 41.3145C92.6116 41.3145 87.8184 38.3418 87.8184 31.8372C87.8184 25.5772 92.6116 22.4647 96.775 22.4647C99.5739 22.4647 101.218 24.0735 101.463 24.4581V22.7796ZM97.5796 36.4533C99.8538 36.4533 101.708 34.8796 101.708 31.8372C101.708 28.8996 99.8538 27.3258 97.5796 27.3258C95.2005 27.3258 93.1714 28.9345 93.1714 31.8372C93.1714 34.8447 95.2005 36.4533 97.5796 36.4533ZM120.776 22.4647C124.939 22.4647 129.732 25.5772 129.732 31.8372C129.732 38.3418 124.939 41.3145 120.776 41.3145C117.977 41.3145 116.333 39.7756 116.088 39.1461V47.6092H110.56V37.0828V22.7796H116.088V24.4581C116.333 24.0735 117.977 22.4647 120.776 22.4647ZM119.971 36.4533C122.35 36.4533 124.38 34.8447 124.38 31.8372C124.38 28.9345 122.35 27.3258 119.971 27.3258C117.697 27.3258 115.843 28.8996 115.843 31.8372C115.843 34.8796 117.697 36.4533 119.971 36.4533ZM142.957 22.4647C147.121 22.4647 151.914 25.5772 151.914 31.8372C151.914 38.3418 147.121 41.3145 142.957 41.3145C140.159 41.3145 138.514 39.7756 138.269 39.1461V47.6092H132.741V37.0828V22.7796H138.269V24.4581C138.514 24.0735 140.159 22.4647 142.957 22.4647ZM142.153 36.4533C144.532 36.4533 146.561 34.8447 146.561 31.8372C146.561 28.9345 144.532 27.3258 142.153 27.3258C139.879 27.3258 138.024 28.8996 138.024 31.8372C138.024 34.8796 139.879 36.4533 142.153 36.4533ZM163.95 22.4647C168.078 22.4647 173.851 25.5772 172.696 33.7956H159.996C160.625 35.6841 162.27 36.6633 164.475 36.6633C166.713 36.6633 167.413 36.1737 168.672 35.649L171.716 38.5866C170.107 40.1604 167.938 41.3145 164.265 41.3145C159.751 41.3145 154.363 38.202 154.363 31.942C154.363 25.5772 159.821 22.4647 163.95 22.4647ZM163.95 27.186C162.376 27.186 160.766 28.0951 160.066 29.9137H167.798C167.239 28.0951 165.524 27.186 163.95 27.186ZM188.965 40.9647L185.186 35.649L181.442 40.9647H175.111L182.003 31.6273L175.811 22.7796H182.073L185.186 27.6405L188.336 22.7796H194.599L188.37 31.6273L195.297 40.9647H188.965ZM205.814 22.4647C209.944 22.4647 215.401 25.5772 215.401 31.942C215.401 38.3418 209.944 41.3145 205.814 41.3145C201.686 41.3145 196.229 38.3418 196.229 31.942C196.229 25.5772 201.686 22.4647 205.814 22.4647ZM205.814 27.3258C203.715 27.3258 201.582 28.9345 201.582 31.942C201.582 34.8447 203.715 36.4533 205.814 36.4533C207.914 36.4533 210.083 34.8447 210.083 31.942C210.083 28.9345 207.914 27.3258 205.814 27.3258ZM226.911 20.4364C225.337 20.4364 225.373 21.8703 225.373 22.2199V22.7796H229.152V27.3258H225.373V40.9647H219.81V27.3258H217.326V22.7796H219.81V22.2199C219.81 16.5895 224.043 15.8901 226.247 15.8901C227.997 15.8901 229.711 16.2748 231.006 17.1141L229.152 20.926C228.136 20.5413 227.752 20.4364 226.911 20.4364ZM242.551 36.3484C243.531 36.3484 244.23 36.2085 245 35.9988V40.5801C244.23 40.9297 242.971 41.1745 241.117 41.1745C238.073 41.1745 235.518 40.1604 235.518 34.5649V27.3258H232.964V22.7796H235.518V18.513H241.046V22.7796H244.929V27.3258H241.046V34.5649C241.046 35.3692 241.256 36.3484 242.551 36.3484Z" fill="white"/>
</g>
<defs>
<clipPath id="clip0_213_629">
<rect width="245" height="64" fill="white"/>
</clipPath>
</defs>
</svg>
