<svg width="4615" height="1154" viewBox="0 0 4615 1154" fill="none" xmlns="http://www.w3.org/2000/svg">
<path d="M3620.77 366.728C3620.77 396.496 3620.97 426.263 3620.75 456.031C3619.93 560.914 3537.47 647.52 3432.06 654.383C3328.64 661.109 3234.53 586.771 3219.94 484.655C3201.58 355.974 3296.08 255.618 3413.03 251.157C3451.55 249.692 3487.77 259.349 3521.18 278.912C3524.4 280.788 3527.5 282.847 3530.74 284.677C3535.04 287.149 3537.83 286.486 3537.9 280.879C3537.98 273.442 3538.17 265.984 3538 258.549C3537.86 252.507 3540.57 249.853 3546.53 249.877C3568.33 249.944 3590.13 250.036 3611.93 249.829C3622.05 249.738 3620.77 256.764 3620.77 263.031C3620.8 297.627 3620.77 332.178 3620.77 366.728ZM3307.23 458.64C3308.69 465.983 3310.06 479.872 3314.29 492.823C3341.09 575.421 3440.59 599.56 3497.96 537.738C3541.22 491.129 3542.18 418.185 3500.17 370.48C3458.57 323.254 3389.06 320.715 3344.17 364.874C3319.8 388.852 3308.45 418.346 3307.23 458.64Z" fill="white"/>
<path d="M622.378 552.842C619.037 556.457 615.968 559.866 612.786 563.186C539.531 639.995 450.618 668.069 348.773 638.371C246.649 608.604 184.017 537.925 164.811 432.835C138.393 288.114 238.088 150.601 384.735 130.672C522.705 111.933 625.995 194.875 664.889 295.001C665.668 296.968 666.148 299.072 666.997 301.018C669.744 307.264 667.545 310.033 660.952 309.918C658.823 309.873 656.693 309.988 654.564 309.964C642.34 309.873 628.103 313.603 618.465 308.523C609.26 303.673 604.682 289.807 598.412 279.716C552.695 206.293 467.101 168.128 383.293 183.915C298.891 199.817 231.244 267.522 216.318 352.019C193.861 479.168 290.832 590.39 409.802 596.293C500.479 600.777 584.905 546.162 616.153 460.772C616.884 458.78 617.571 456.767 618.396 454.822C621.417 447.615 619.953 444.365 611.253 444.502C585.203 444.891 559.15 444.641 533.1 444.617C503.317 444.617 473.535 444.298 443.774 444.8C434.458 444.961 429.901 442.857 430.702 432.558C431.459 422.515 431 412.378 430.908 402.289C430.841 396.317 433.542 393.434 439.493 393.48C442.675 393.502 445.881 393.365 449.063 393.365C517.646 393.365 586.255 393.341 654.84 393.389C672.832 393.41 672.926 393.502 672.926 412.013C672.971 481.637 672.971 551.264 672.926 620.891C672.902 638.417 672.81 638.599 655.48 638.463C646.003 638.393 632.451 641.117 628.124 636.152C622.928 630.18 625.149 617.388 624.921 607.527C624.507 590.527 624.714 573.527 624.577 556.503C624.553 555.633 623.592 554.81 622.378 552.842Z" fill="white"/>
<path d="M2761.73 449.974C2761.95 338.477 2852.07 248.144 2963.47 247.778C3075.97 247.413 3166.72 338.684 3166.58 451.989C3166.39 563.051 3075.25 653.384 2963.86 652.904C2850.8 652.423 2761.47 562.753 2761.73 449.974ZM3076.02 450.271C3076.26 425.676 3069.24 403.16 3056.15 382.523C3017.16 321.042 2935.42 312.988 2885.24 365.636C2842.61 410.369 2840.9 484.983 2881.47 531.498C2923.02 579.136 2989.79 584.192 3036.08 542.344C3063.09 517.953 3075.8 486.607 3076.02 450.271Z" fill="white"/>
<path d="M4242.56 391.512C4239.38 391.533 4236.14 391.168 4232.99 391.579C4210.04 394.555 4194.18 387.531 4178.12 368.196C4132.02 312.665 4045.5 320.765 4006.04 381.627C3976.31 427.479 3981.45 493.789 4017.89 534.424C4067.73 589.979 4152.14 582.313 4191.63 517.88C4197.64 508.065 4203.86 505.274 4214.36 505.571C4236.14 506.167 4257.94 505.687 4279.76 505.778C4294.68 505.845 4295.05 506.076 4289.47 520.559C4266.81 579.34 4226.57 621.188 4166.95 642.238C4049.64 683.63 3925.31 613.796 3900.15 492.071C3875.25 371.742 3961.79 262.076 4077.04 250.041C4172.62 240.042 4254.33 296.9 4285.82 372.84C4286.63 374.809 4287.38 376.777 4288.1 378.79C4292.23 390.527 4291.92 391.214 4279.23 391.488C4267.02 391.694 4254.81 391.488 4242.56 391.512Z" fill="white"/>
<path d="M1395.47 232.569C1395.47 256.479 1395.38 280.412 1395.59 304.323C1395.61 307.616 1397.26 310.888 1398.13 314.16C1400.62 312.375 1403.44 310.912 1405.59 308.784C1429.26 285.651 1457.12 269.703 1488.8 260.529C1599.12 228.565 1716.56 301.051 1737.48 413.944C1756.85 518.508 1697.67 618.221 1598.11 646.594C1527.75 666.661 1464.81 650.896 1409.62 603.189C1405.8 599.895 1401.29 597.4 1397.1 594.541C1396.55 599.71 1395.54 604.882 1395.5 610.054C1395.24 638.517 1395.34 638.563 1366.45 638.493C1340.97 638.426 1343.44 640.783 1343.44 615.293C1343.39 465.951 1343.42 316.586 1343.42 167.244C1343.42 163.515 1343.69 159.785 1343.39 156.079C1342.75 148.093 1345.84 144.227 1354.25 144.524C1364.34 144.867 1374.46 144.867 1384.55 144.524C1392.93 144.227 1395.61 148.025 1395.52 156.033C1395.22 181.545 1395.41 207.057 1395.41 232.569H1395.47ZM1395.47 454.42C1395.68 535.234 1461.01 602.252 1539.79 602.48C1619.45 602.708 1685.01 535.577 1684.92 453.894C1684.83 373.263 1619.34 305.81 1540.81 305.467C1461.86 305.123 1395.27 373.376 1395.47 454.42Z" fill="white"/>
<path d="M2207.87 457.997C2207.87 512.202 2207.89 566.407 2207.85 620.612C2207.83 638.39 2207.74 638.664 2190.68 638.412C2179.69 638.229 2168.7 637.062 2157.71 636.353C2157.21 625.827 2156.87 615.303 2156.09 604.801C2155.82 600.957 2154.47 597.181 2153.6 593.383C2150.64 595.42 2147.39 597.135 2144.76 599.516C2112.5 629.007 2075.17 647.245 2031.51 653.147C1928.79 667.058 1829.58 597.135 1809.07 495.706C1787.37 388.51 1851.51 284.928 1957.73 259.211C2026.93 242.463 2089.24 258.8 2142.58 306.757C2143.78 307.833 2144.74 309.159 2146.02 310.098C2148.49 311.904 2151.1 313.507 2153.64 315.176C2154.49 311.883 2155.79 308.633 2156.07 305.294C2156.8 296.391 2153.76 283.441 2158.43 279.528C2164.26 274.632 2176.33 276.554 2185.69 276.6C2209.22 276.737 2207.78 272.252 2207.83 298.589C2207.92 351.718 2207.87 404.847 2207.87 457.997ZM2010.13 602.444C2083.64 602.879 2155.5 542.176 2155.5 453.421C2155.5 368.055 2087.02 305.865 2010.79 305.476C1932.23 305.087 1865.7 372.631 1865.29 452.782C1864.83 533.757 1931.11 602.238 2010.13 602.444Z" fill="white"/>
<path d="M2536.54 352.631C2536.54 415.873 2536.51 479.09 2536.58 542.311C2536.61 558.991 2536.78 559.128 2553.46 559.15C2606.62 559.219 2659.78 559.15 2712.94 559.22C2730.03 559.241 2730.03 559.335 2730.08 576.791C2730.08 592.739 2729.53 608.687 2730.27 624.611C2730.75 634.633 2726.96 637.357 2717.46 637.288C2676.53 636.922 2635.6 637.151 2594.65 637.151C2552.66 637.151 2510.68 637.22 2468.66 637.105C2453.14 637.059 2452.99 636.898 2452.99 621.157C2452.97 467.606 2452.97 314.03 2452.99 160.479C2452.99 144.805 2453.14 144.714 2468.76 144.599C2486.28 144.485 2503.85 144.462 2521.39 144.622C2536.25 144.759 2536.49 144.897 2536.51 159.769C2536.58 224.041 2536.51 288.334 2536.54 352.631Z" fill="white"/>
<path d="M1281.67 454.2C1284.14 554.738 1200.29 651.387 1084.06 651.271C974.935 651.156 887.005 562.723 887.166 453.081C887.303 344.19 976.103 256.879 1086.03 256.879C1197.19 256.879 1284.32 350.986 1281.67 454.2ZM1084.22 602.467C1163.5 602.582 1230 534.74 1229.95 453.789C1229.91 374.073 1163.43 305.979 1085.09 305.453C1006.98 304.927 939.956 372.952 939.819 452.941C939.68 534.877 1004.83 602.354 1084.22 602.467Z" fill="white"/>
<path d="M3417.82 858.751C3339.66 857.082 3279.67 828.549 3235.52 768.694C3227.76 758.168 3227.83 757.964 3239.63 752.174C3259.17 742.563 3279 733.572 3298.22 723.413C3306.92 718.813 3311.71 720.278 3318.32 727.531C3344.56 756.383 3377.18 772.285 3416.83 771.692C3466.77 770.959 3510.87 735.585 3524.62 685.363C3528.95 669.506 3528.95 669.485 3545.7 669.485C3566.97 669.461 3588.24 669.734 3609.51 669.369C3618.23 669.208 3620.06 672.23 3618.95 680.787C3607.42 770.753 3530.44 846.786 3440.38 856.556C3431.4 857.493 3422.43 858.295 3417.82 858.751Z" fill="white"/>
<path d="M3722.23 442.83C3722.23 384.392 3722.19 325.979 3722.26 267.541C3722.28 249.97 3722.38 249.9 3739.63 249.833C3759.29 249.741 3778.95 249.717 3798.61 249.854C3814.16 249.969 3814.31 250.082 3814.31 265.985C3814.36 364.257 3814.33 462.508 3814.33 560.779C3814.33 582.035 3814 603.268 3814.45 624.525C3814.64 633.379 3811.69 636.721 3802.6 636.514C3780.83 636.012 3759.03 636.447 3737.23 636.332C3722.52 636.262 3722.31 636.125 3722.28 621.299C3722.19 561.809 3722.23 502.32 3722.23 442.83Z" fill="white"/>
<path d="M812.584 391.73C812.584 468.266 812.606 544.825 812.56 621.361C812.56 638.382 812.469 638.407 794.934 638.452C786.416 638.474 777.925 638.337 769.407 638.361C764.12 638.382 761.647 635.822 761.741 630.58C761.786 626.852 761.671 623.146 761.671 619.415C761.671 467.396 761.671 315.353 761.671 163.335C761.671 160.155 761.899 156.952 761.695 153.771C761.236 146.747 764.899 144.459 771.354 144.55C781.999 144.71 792.621 144.733 803.266 144.55C809.995 144.436 813.019 147.296 812.606 154.092C812.353 158.324 812.606 162.603 812.606 166.836C812.584 241.84 812.584 316.795 812.584 391.73Z" fill="white"/>
<path d="M2350.66 390.816C2350.66 467.26 2350.68 543.704 2350.64 620.148C2350.64 636.92 2350.55 636.966 2334.38 637.103C2325.89 637.172 2317.38 636.898 2308.88 637.081C2302.02 637.218 2299.31 634.013 2299.73 627.379C2299.96 623.672 2299.73 619.944 2299.73 616.237C2299.73 466.001 2299.73 315.767 2299.73 165.51C2299.73 162.33 2299.98 159.127 2299.7 155.969C2298.99 148.03 2301.99 144.186 2310.42 144.529C2320.49 144.941 2330.61 144.872 2340.68 144.575C2348.33 144.346 2351.19 147.824 2350.66 155.123C2350.39 158.806 2350.64 162.559 2350.64 166.266C2350.66 241.108 2350.66 315.974 2350.66 390.816Z" fill="white"/>
<path d="M1383.23 1016.36C1381.78 1016.8 1380.61 1016.84 1379.84 1017.42C1333.11 1052.24 1273.27 1032.22 1257.71 976.414C1251.37 953.716 1252.49 931.112 1260.87 909.146C1279.73 859.724 1344.74 842.265 1385.63 875.441C1395.86 883.748 1402.66 894.205 1405.93 906.994C1407.7 913.835 1407.15 918.594 1398.17 917.84C1393.41 917.45 1388.6 917.611 1383.82 917.84C1376.86 918.183 1372.24 916.444 1369.08 909.055C1358.13 883.52 1318.76 884.779 1303.29 905.233C1287.81 925.711 1286.41 965.82 1301.36 986.618C1312.63 1002.29 1328.35 1006.39 1346.44 1003.64C1360.86 1001.47 1370.59 993.347 1375.01 979.251C1378.19 969.092 1377.66 968.223 1367.45 967.766C1362.14 967.536 1356.74 967.125 1351.52 967.833C1341.01 969.207 1339.07 964.151 1339.43 954.953C1340.01 941.064 1339.5 940.811 1351.77 940.653C1367.73 940.446 1383.68 940.835 1399.64 940.538C1407.17 940.401 1410.12 943.511 1410.05 950.903C1409.87 974.286 1410.05 997.671 1409.94 1021.05C1409.92 1025.63 1410.72 1031.74 1403.42 1031.24C1396.91 1030.78 1387.71 1035.72 1385.79 1023.8C1385.4 1021.24 1384.12 1018.83 1383.23 1016.36Z" fill="white"/>
<path d="M406.707 945.827C406.729 922.445 407.027 899.06 406.57 875.677C406.388 866.157 409.339 862.496 419.299 862.794C446.632 863.664 442.763 860.048 443.174 886.705C443.335 896.794 443.381 906.907 443.219 916.999C443.107 923.932 445.166 928.003 453.155 927.866C469.637 927.547 486.12 927.569 502.602 927.866C510.156 928.003 512.997 924.868 512.836 917.434C512.538 903.614 512.653 889.794 512.836 875.972C512.997 863.253 513.134 862.977 526.388 863.046C550.859 863.159 548.41 860.231 548.478 885.286C548.615 928.873 548.569 972.46 548.478 1016.03C548.456 1031.4 548.273 1031.4 532.476 1031.49C530.347 1031.52 528.22 1031.52 526.09 1031.49C513.088 1031.24 512.949 1031.24 512.836 1018.36C512.675 1001.89 512.583 985.413 512.836 968.939C512.949 961.547 510.11 958.343 502.58 958.482C487.172 958.756 471.721 958.962 456.315 958.367C446.769 958.002 442.809 961.182 443.107 971.019C443.609 986.945 442.808 1002.91 443.335 1018.84C443.654 1028.31 440.749 1032.04 430.698 1031.68C403.525 1030.65 407.051 1035.11 406.753 1008C406.525 987.289 406.683 966.558 406.707 945.827Z" fill="white"/>
<path d="M2290.23 969.708C2290.23 953.234 2290.46 936.782 2290.12 920.332C2289.96 912.803 2292.89 909.531 2300.35 910.081C2306.67 910.538 2313.76 909.097 2319.15 911.568C2328.55 915.871 2328.1 916.853 2337.32 911.775C2353.9 902.668 2376.26 905.229 2390.06 918.958C2394.8 923.673 2397.21 923.466 2401.35 919.051C2411.24 908.525 2423.95 906.099 2437.8 906.855C2460.58 908.09 2473.77 918.662 2475.48 941.656C2477.45 968.586 2476.71 995.724 2477.21 1022.77C2477.33 1028.51 2475.24 1031.03 2468.97 1031.6C2444 1033.91 2443.32 1033.55 2443.32 1008.38C2443.32 990.324 2443.8 972.247 2443.11 954.219C2442.51 938.43 2434.07 931.269 2419.84 932.664C2410.11 933.625 2404.1 939.323 2402.01 948.293C2400.23 955.98 2399.61 964.034 2399.4 971.949C2399.01 986.273 2399.34 1000.62 2399.27 1014.96C2399.18 1031.48 2399.11 1031.48 2382.71 1031.46C2366.92 1031.46 2366.83 1031.46 2366.78 1016.22C2366.69 996.569 2366.94 976.915 2366.69 957.284C2366.48 941.199 2361.36 934.13 2349.73 932.756C2336.84 931.223 2327.25 938.727 2324.2 953.304C2323.13 958.452 2322.85 963.804 2322.78 969.067C2322.6 984.993 2322.83 1000.94 2322.67 1016.87C2322.53 1031.37 2322.42 1031.51 2307.42 1031.44C2288.95 1031.35 2290.3 1033.43 2290.21 1014.35C2290.12 999.476 2290.18 984.604 2290.18 969.73L2290.23 969.708Z" fill="white"/>
<path d="M2066.97 1035.04C2021.58 1035.14 1988.93 1006.35 1984.77 961.026C1983.58 948.03 1984.42 934.302 1987.35 921.601C1999.35 869.823 2051.68 844.403 2100.53 865.751C2120.38 874.423 2132.65 889.34 2137.96 910.345C2139.63 916.934 2137.5 919.245 2131.18 919.154C2125.35 919.062 2119.49 918.971 2113.65 919.199C2107.77 919.428 2103.97 917.712 2101.26 911.762C2094.08 895.975 2080.68 889.316 2063.9 889.982C2045.59 890.712 2032.86 900.414 2026.32 917.302C2018.74 936.817 2018.58 956.839 2025.93 976.469C2031.26 990.724 2041.38 1000.49 2056.83 1003.49C2078.72 1007.7 2094.19 999.694 2102.16 978.482C2105.34 970.017 2109.37 967.271 2118.16 967.25C2142.33 967.226 2144.14 969.469 2135.01 992.098C2123.79 1019.87 2099.87 1034.98 2066.97 1035.04Z" fill="white"/>
<path d="M305.956 1031.45C302.226 1031.45 298.472 1031.11 294.81 1031.52C288.787 1032.19 286.133 1028.96 284.713 1023.83C284.439 1022.8 284.004 1021.84 283.66 1020.84C273.795 993.585 273.795 993.472 244.171 993.655C233.618 993.722 220.913 991.113 213.175 996.011C206.284 1000.36 204.453 1013.24 201.248 1022.67C199.005 1029.19 195.594 1031.43 188.589 1031.66C159.722 1032.67 159.813 1032.99 169.886 1006.56C186.529 962.948 203.263 919.384 219.402 875.612C222.813 866.347 227.345 862.501 237.647 862.686C262.417 863.121 262.417 862.571 270.978 885.382C287.369 929.084 303.851 972.741 320.172 1016.47C325.712 1031.32 325.53 1031.38 309.139 1031.48C308.086 1031.48 307.009 1031.45 305.956 1031.45ZM244.812 907.943C243.827 908.034 242.866 908.125 241.883 908.217C238.448 917.6 234.9 926.956 231.58 936.361C220.18 968.576 221.279 969.904 255.755 965.97C256.281 965.9 256.807 965.922 257.334 965.9C262.278 965.648 263.607 963.361 261.982 958.624C256.144 941.785 250.513 924.852 244.812 907.943Z" fill="white"/>
<path d="M1798.77 991.399C1798.77 968.038 1799.02 944.656 1798.66 921.295C1798.52 913.17 1801.52 908.594 1809.56 910.333C1816.9 911.912 1828.9 903.081 1830.64 918.777C1832.68 918.273 1834.83 918.044 1836.75 917.245C1844.42 913.994 1851.72 908.573 1859.64 907.542C1891.4 903.379 1912.55 919.075 1920.06 950.49C1924.93 970.921 1923.6 990.667 1913.3 1009.16C1898.67 1035.35 1867.2 1042.77 1841.97 1026.43C1839.41 1024.76 1836.71 1023.32 1834.05 1021.76C1833.13 1025.1 1831.55 1028.4 1831.42 1031.76C1831.05 1041.85 1830.91 1051.97 1831.35 1062.03C1831.71 1070.8 1828.4 1074.96 1819.4 1074.14C1816.77 1073.88 1814.06 1073.86 1811.43 1074.16C1801.91 1075.19 1798.29 1071.46 1798.57 1061.55C1799.18 1038.15 1798.77 1014.76 1798.77 991.399ZM1890.18 971.814C1888.47 964.264 1887.53 955.73 1884.53 947.973C1880.15 936.668 1869.35 930.286 1858.2 931.201C1846.57 932.162 1838.19 938.203 1834.16 949.141C1828.83 963.578 1828.81 978.288 1834.51 992.613C1838.97 1003.89 1849.02 1010.32 1860.61 1009.89C1872.35 1009.45 1880.89 1003.66 1885.05 992.773C1887.48 986.48 1888.35 979.571 1890.18 971.814Z" fill="white"/>
<path d="M2514.23 910.042C2519.39 910.935 2527.13 907.503 2529.01 917.159C2529.08 917.525 2533.41 918.005 2534.78 917.044C2573.47 890.433 2615.34 916.518 2619.59 956.742C2621.44 974.153 2620.65 990.606 2612.93 1006.35C2599.04 1034.54 2566.52 1043.39 2540.02 1026.51C2537.08 1024.65 2533.79 1023.39 2530.64 1021.84C2530.23 1025.45 2529.51 1029.05 2529.44 1032.66C2529.25 1042.75 2528.98 1052.86 2529.46 1062.91C2529.85 1071.15 2526.6 1074.72 2518.46 1074.05C2516.34 1073.89 2514.18 1074.07 2512.09 1074.05C2497.19 1073.89 2496.95 1073.87 2496.9 1058.97C2496.78 1014.9 2496.8 970.836 2496.87 926.768C2496.92 909.905 2497.07 909.905 2514.23 910.042ZM2527.4 970.288C2529.58 978.89 2530.67 987.401 2533.93 994.975C2538.28 1005.04 2547.15 1009.9 2558.21 1009.87C2568.62 1009.83 2576.98 1005.36 2581.62 996.097C2590.22 978.845 2590.27 961.021 2580.66 944.364C2569.91 925.74 2543.72 926.677 2534.13 945.921C2530.47 953.197 2529.61 961.914 2527.4 970.288Z" fill="white"/>
<path d="M1036.82 924.388C1049.59 909.194 1064.31 905.373 1081.02 906.929C1100.39 908.738 1113.83 919.468 1114.97 938.573C1116.67 966.647 1116 994.861 1116.39 1023.03C1116.48 1028.98 1113.87 1031.93 1107.76 1031.45C1106.71 1031.35 1105.63 1031.47 1104.58 1031.47C1080.34 1031.22 1084.32 1033.5 1084 1011.31C1083.79 996.965 1084.16 982.595 1083.86 968.249C1083.72 961.912 1083.22 955.482 1081.8 949.327C1079.26 938.208 1073.56 933.449 1063.49 932.671C1051.42 931.732 1042.91 935.897 1039.13 946.308C1036.84 952.645 1035.9 959.738 1035.72 966.51C1035.26 984.562 1035.21 1002.66 1035.7 1020.72C1035.92 1028.98 1033.16 1031.81 1024.82 1031.63C998.222 1030.99 1002.2 1033.94 1002.09 1010.19C1001.86 966.075 1001.98 921.962 1002.07 877.825C1002.09 863.135 1002.25 863.114 1017.13 862.977C1020.31 862.953 1023.54 863.227 1026.7 862.977C1033.91 862.381 1035.77 866.066 1035.63 872.585C1035.35 886.405 1035.51 900.225 1035.6 914.044C1035.63 916.449 1036.15 918.897 1036.82 924.388Z" fill="white"/>
<path d="M2745.13 976.28C2746.09 992.685 2747.2 1009.09 2747.8 1025.5C2747.87 1027.4 2744.53 1031.31 2743.5 1031.08C2733.57 1028.84 2720.88 1038.2 2713.36 1024.4C2713.07 1023.85 2707.88 1025.38 2705.4 1026.75C2689.71 1035.36 2673.2 1037.26 2656.11 1032.29C2639.62 1027.51 2631.96 1016.73 2631.72 999.322C2631.43 981.361 2638.01 970.628 2654.72 965.571C2665.8 962.208 2677.62 961.247 2689.06 959.073C2694.25 958.091 2699.73 957.565 2704.47 955.482C2714.37 951.134 2715.28 938.756 2706.63 932.28C2698.34 926.058 2677.38 926.973 2673.25 935.919C2667.38 948.526 2657.79 946.537 2648.08 946.421C2634.41 946.26 2633.14 944.11 2638.64 931.778C2644.07 919.652 2654.12 912.856 2666.4 909.767C2684.69 905.166 2703.31 904.917 2721.53 910.11C2738.86 915.051 2745.69 924.73 2746.02 942.736C2746.19 953.904 2746.07 965.069 2746.07 976.235C2745.71 976.235 2745.42 976.256 2745.13 976.28ZM2712.54 983.511C2711.92 982.252 2709.47 975.113 2708.31 975.319C2695.94 977.448 2683.37 979.78 2671.71 984.289C2668.03 985.706 2664.69 994.15 2665.39 998.75C2666.06 1003.33 2671.18 1009 2675.75 1010.94C2693.8 1018.68 2711.53 1006.48 2712.54 983.511Z" fill="white"/>
<path d="M841.186 984.822C841.186 997.544 840.729 1010.27 841.393 1022.94C841.691 1028.82 841.164 1032.82 834.478 1031.27C825.619 1029.21 814.174 1037.72 807.558 1024.91C807.214 1024.24 801.172 1025.82 798.24 1027.29C782.904 1034.88 766.994 1037.31 750.466 1032.41C733.707 1027.47 724.711 1015.28 724.69 998.459C724.665 982.076 732.791 970.087 749.182 965.374C760.308 962.169 772.053 961.093 783.476 958.967C788.146 958.098 793.457 958.052 797.187 955.626C801.081 953.087 806.07 947.936 805.796 944.3C805.453 939.471 801.513 933.18 797.257 930.686C786.725 924.554 771.435 929.473 763.879 939.793C759.644 945.558 737.622 949.654 732.335 945.008C730.619 943.5 730.068 939.219 730.732 936.658C733.914 924.484 742.201 916.134 753.624 911.969C774.663 904.328 796.296 904.534 817.676 910.78C832.877 915.219 839.744 926.567 840.112 941.873C840.455 956.173 840.179 970.498 840.179 984.822C840.523 984.822 840.866 984.822 841.186 984.822ZM806.712 981.708C805.933 980.702 803.323 974.867 801.376 975.074C790.96 976.196 780.522 978.163 770.474 981.137C762.117 983.609 757.378 990.037 758.683 999.304C759.942 1008.14 766.604 1011.23 774.319 1012.51C792.931 1015.55 805.933 1004.38 806.712 981.708Z" fill="white"/>
<path d="M1584.84 906.856C1623.64 906.971 1647.65 931.543 1647.56 971.083C1647.49 1009.89 1622.54 1034.74 1583.78 1034.67C1545.39 1034.6 1520.92 1009.32 1521.19 970.052C1521.47 930.491 1545.39 906.741 1584.84 906.856ZM1553.7 970.417C1555.51 978.404 1556.31 986.435 1559.17 993.665C1563.48 1004.56 1572.52 1009.82 1584.26 1009.89C1595.32 1009.96 1604.06 1005.2 1608.83 995.22C1616.56 979.022 1616.45 962.32 1608.96 946.05C1604.29 935.915 1595.27 931.154 1584.47 931.223C1573.09 931.293 1563.48 936.006 1559.26 947.217C1556.49 954.539 1555.51 962.502 1553.7 970.417Z" fill="white"/>
<path d="M2954.09 988.909C2957.29 979.574 2960.56 970.261 2963.66 960.902C2967.79 948.341 2972.58 935.917 2975.56 923.082C2977.96 912.763 2983.15 908.688 2993.29 910.017C2995.38 910.291 2997.55 910.017 2999.66 910.063C3014.18 910.315 3014.32 910.382 3009.28 924.043C2994.4 964.267 2978.92 1004.26 2964.57 1044.67C2953.37 1076.15 2932.51 1075.88 2907.04 1073.22C2896.77 1072.15 2901.8 1062.26 2900.98 1056.16C2900.24 1050.62 2902.52 1046.87 2909.01 1047.32C2912.18 1047.55 2915.42 1047.94 2918.55 1047.55C2929.29 1046.22 2934.53 1039.66 2932.83 1028.88C2931.91 1023.18 2929.92 1017.6 2927.87 1012.18C2916.72 982.433 2905.35 952.756 2894.23 923.013C2889.56 910.497 2889.73 910.154 2903.5 910.13C2929.94 910.084 2924.49 908.643 2931.82 930.31C2938.38 949.761 2944.84 969.254 2951.35 988.726C2952.27 988.748 2953.18 988.839 2954.09 988.909Z" fill="white"/>
<path d="M2280.47 970.343C2280.57 1010.11 2256.78 1034.57 2217.95 1034.66C2179.43 1034.75 2153.67 1009.72 2154.38 970.778C2155.25 924.125 2185.13 906.162 2217.52 906.667C2257.15 907.308 2280.38 930.143 2280.47 970.343ZM2248.63 971.991C2247.28 964.256 2246.8 957.804 2244.97 951.765C2241.05 938.769 2230.52 931.104 2217.84 931.08C2204.95 931.058 2195.13 938.426 2190.76 951.741C2186.27 965.356 2186.64 979.015 2191.79 992.287C2196 1003.18 2204.38 1009.22 2216.12 1009.81C2228.53 1010.45 2238.08 1005.1 2242.91 993.704C2245.93 986.519 2246.98 978.511 2248.63 971.991Z" fill="white"/>
<path d="M1776.99 972.015C1776.99 988.489 1776.8 1004.94 1777.08 1021.41C1777.19 1028.85 1774.45 1032.19 1766.8 1031.55C1762.06 1031.14 1757.23 1031.64 1752.47 1031.32C1750.5 1031.18 1747.09 1030.27 1746.93 1029.28C1744.18 1011.69 1737.38 1024.43 1732.42 1027.41C1715.98 1037.25 1699.06 1037.27 1682.08 1029.72C1672.19 1025.33 1666.21 1016.7 1665.12 1006.15C1663.51 990.913 1663.12 975.515 1662.69 960.163C1662.32 947.417 1663.03 934.652 1662.5 921.93C1662.14 912.823 1665.89 909.275 1674.64 910.053C1676.74 910.236 1678.9 910.032 1681 910.053C1695.95 910.214 1696.02 910.214 1696.11 924.812C1696.22 944.993 1695.61 965.195 1696.41 985.354C1697.19 1004.46 1711.1 1013.36 1728.11 1006.82C1737.06 1003.36 1741.48 996.2 1742.38 987.321C1743.63 974.691 1744 961.947 1744.48 949.247C1744.76 941.812 1744.07 934.33 1744.69 926.962C1745.15 921.562 1746.04 912.251 1748.4 911.701C1756.39 909.825 1765.15 910.558 1773.49 911.54C1775.02 911.723 1775.91 917.695 1776.97 921.036C1777.26 922.021 1777.06 923.14 1777.06 924.217C1777.06 940.143 1777.06 956.088 1777.06 972.015H1776.99Z" fill="white"/>
<path d="M2768.11 970.075C2768.11 955.729 2768.04 941.383 2768.11 927.037C2768.23 909.715 2768.4 909.624 2786.23 910.037C2792.48 910.174 2799.71 908.824 2799.95 918.594C2802.28 918.387 2805.43 919.074 2806.76 917.815C2818.32 906.924 2832.4 905.896 2847.04 907.109C2866.29 908.709 2877.05 918.411 2880.3 937.516C2881.62 945.342 2882.32 953.327 2882.44 961.244C2882.75 981.425 2882.41 1001.63 2882.56 1021.83C2882.61 1028.19 2880.8 1031.14 2873.62 1031.63C2849.01 1033.27 2849.05 1033.59 2849.01 1009.04C2848.98 991.514 2849.49 973.942 2848.57 956.437C2847.66 938.409 2838.12 930.607 2821.97 932.735C2812.48 933.97 2806.11 939.279 2803.75 948.224C2801.85 955.318 2800.94 962.844 2800.77 970.19C2800.34 987.19 2800.39 1004.19 2800.7 1021.19C2800.84 1028.44 2798.78 1031.72 2790.8 1031.56C2764.29 1031.05 2768.49 1033.57 2768.11 1009.91C2767.92 996.64 2768.11 983.368 2768.11 970.075Z" fill="white"/>
<path d="M860.563 971.409C859.167 924.574 896.458 894.05 949.339 911.28C964.288 916.152 974.221 927.228 978.115 942.9C979.511 948.528 978.115 952.305 971.292 952.098C966.506 951.961 961.7 951.846 956.939 952.213C950.988 952.67 947.873 950.428 944.737 944.959C934.208 926.541 909.712 926.404 899.731 944.8C890.894 961.113 890.644 978.481 898.794 995.366C903.302 1004.7 911.224 1009.89 921.777 1009.83C932.124 1009.76 941.646 1005.75 944.53 995.64C947.712 984.474 954.581 983.72 963.577 984.544C965.684 984.727 967.857 984.842 969.941 984.544C980.22 983.057 979.876 988.868 978.091 995.983C973.01 1016.21 954.535 1031.68 931.987 1034.45C889.841 1039.59 860.494 1013.69 860.563 971.409Z" fill="white"/>
<path d="M3769.77 94.2912C3781.48 94.2912 3793.18 94.497 3804.89 94.2225C3811.64 94.0622 3814.43 96.831 3814.36 103.604C3814.16 125.935 3814.19 148.244 3814.36 170.575C3814.4 177.119 3812.19 180.322 3805.17 180.254C3780.73 180.048 3756.24 180.048 3731.78 180.254C3724.97 180.322 3722.21 177.577 3722.23 170.872C3722.38 148.541 3722.45 126.233 3722.19 103.901C3722.09 95.9842 3725.98 94.0166 3733.05 94.1768C3745.33 94.5199 3757.56 94.2912 3769.77 94.2912Z" fill="white"/>
<path d="M650.982 973.349C650.982 962.756 650.799 952.138 651.051 941.545C651.21 935.001 648.944 931.364 641.94 932.003C633.973 932.736 630.563 929.738 630.63 921.227C630.676 913.127 633.286 909.399 641.551 909.992C649.54 910.564 651.441 905.714 651.051 898.897C650.866 895.716 651.027 892.536 651.051 889.355C651.188 872.972 651.188 872.857 667.488 872.972C686.556 873.085 684.36 871.255 684.564 890.018C684.588 892.146 684.84 894.296 684.518 896.379C683.031 906.653 687.128 911.229 697.66 910.153C705.007 909.399 709.814 911.321 709.564 920.473C709.357 928.297 707.273 931.866 698.713 932.164C684.634 932.666 684.61 933.216 684.542 947.403C684.473 962.251 684.725 977.102 684.473 991.928C684.312 1001.72 688.433 1007.62 698.46 1006.71C710.295 1005.63 709.059 1013.02 709.516 1020.69C710.066 1030.05 705.625 1033.05 697.247 1032.59C696.194 1032.54 695.117 1032.61 694.065 1032.63C659.451 1033.32 648.944 1025.72 650.96 990.854C651.301 985.041 650.982 979.184 650.982 973.349Z" fill="white"/>
<path d="M1470.41 923.559C1481.05 917.931 1490.55 911.02 1501.15 907.818C1512.66 904.339 1514.93 907.337 1515.32 919.509C1515.43 923.216 1515.18 926.922 1515.23 930.629C1515.32 936.807 1511.2 936.579 1506.69 937.014C1480.64 939.598 1471.67 949.207 1470.82 975.703C1470.38 989.477 1470.82 1003.27 1470.66 1017.05C1470.5 1031.21 1470.38 1031.44 1456.83 1031.39C1435.93 1031.33 1438.31 1033.57 1438.2 1012.61C1438.06 983.986 1438.13 955.364 1438.17 926.74C1438.2 910.631 1438.27 910.631 1449.83 910.037C1468.21 909.122 1468.37 909.235 1470.41 923.559Z" fill="white"/>
<path d="M610.425 971.311C610.425 988.265 610.288 1005.24 610.495 1022.2C610.586 1028.88 608.022 1031.19 601.201 1031.62C576.913 1033.13 576.934 1033.41 576.934 1008.86C576.934 980.233 577.278 951.611 576.752 923.008C576.591 913.628 578.994 908.823 589.066 910.036C591.677 910.356 594.356 910.013 597.012 910.082C610.082 910.471 610.243 910.493 610.404 923.65C610.586 939.552 610.449 955.454 610.449 971.357L610.425 971.311Z" fill="white"/>
<path d="M1141.4 971.058C1141.4 955.132 1141.26 939.184 1141.45 923.26C1141.61 910.377 1141.77 910.377 1155.05 910.058C1173.77 909.623 1173.86 909.623 1173.89 927.882C1173.95 957.625 1174 987.371 1173.86 1017.12C1173.79 1031.26 1173.59 1031.26 1159.97 1031.46C1156.79 1031.51 1153.56 1031.21 1150.4 1031.51C1143.23 1032.17 1141.26 1028.58 1141.33 1022.06C1141.56 1005.06 1141.4 988.058 1141.4 971.058Z" fill="white"/>
<path d="M4427.16 126.184C4458.45 126.23 4481.09 149.019 4481.28 180.617C4481.45 212.672 4457.87 236.812 4426.6 236.583C4396.18 236.377 4372.36 212.421 4371.98 181.601C4371.59 149.957 4395.29 126.138 4427.16 126.184ZM4473.28 181.212C4473.33 153.64 4453.5 132.613 4427.25 132.453C4401.46 132.293 4380.53 153.823 4380.34 180.754C4380.12 207.89 4400.48 229.169 4426.75 229.238C4453.43 229.307 4473.23 208.897 4473.28 181.212Z" fill="white"/>
<path d="M593.435 890.476C577.616 890.476 572.442 883.404 577.342 867.939C577.96 865.993 580.5 863.728 582.469 863.363C586.566 862.606 590.895 862.949 595.129 862.973C610.763 863.065 611.177 863.521 610.444 878.967C609.917 890.339 609.735 890.476 593.435 890.476Z" fill="white"/>
<path d="M1157.46 861.223C1172.41 863.029 1179.23 873.462 1172.96 886.138C1172.02 888.038 1169.25 889.616 1167.03 890.142C1164.03 890.851 1160.78 890.464 1157.62 890.464C1142.31 890.51 1136.03 882.294 1142.28 867.97C1143.93 864.218 1152.24 863.394 1157.46 861.223Z" fill="white"/>
<path d="M4424.84 151.716C4428.02 151.716 4431.24 151.51 4434.41 151.762C4448.88 152.906 4455.97 163.797 4448.61 175.969C4445.18 181.667 4445.68 184.756 4448.28 189.515C4449.5 191.734 4450.27 194.754 4449.86 197.157C4449.17 201.23 4447.29 205.096 4445.95 209.055C4443.59 205.577 4439.82 202.328 4439.15 198.553C4437.87 191.208 4435.04 186.907 4427.2 186.289C4420.25 185.762 4416.29 187.41 4415.93 195.51C4415.71 199.994 4412.28 208.323 4411.19 208.185C4402.25 207.018 4406.53 199.308 4406.15 194.366C4405.4 184.847 4405.83 175.26 4405.95 165.696C4406.12 151.922 4406.19 151.922 4420.09 151.693C4421.7 151.67 4423.26 151.693 4424.87 151.693L4424.84 151.716ZM4427.85 177.525C4433.79 177.777 4440.15 176.153 4439.99 168.877C4439.82 161.6 4433.28 160.754 4426.96 160.617C4420.09 160.479 4415.76 161.852 4416.19 170.135C4416.65 178.28 4422.06 177.525 4427.85 177.525Z" fill="white"/>
</svg>
