<svg width="345" height="152" viewBox="0 0 345 152" fill="none" xmlns="http://www.w3.org/2000/svg">
<g clip-path="url(#clip0_213_614)">
<path d="M256.631 101.751C269.511 101.751 273.521 88.0997 273.521 75.5449C273.521 58.7238 266.473 49.9477 256.631 49.9477C244.236 49.9477 239.862 63.5996 239.983 75.7885C240.105 87.8557 243.507 101.751 256.631 101.751ZM250.312 75.4229C250.312 70.4255 250.312 58.7238 256.631 58.7238C263.435 58.7238 263.192 70.3035 263.192 75.6669C263.192 80.7862 263.192 93.2191 256.874 93.2191C250.069 93.0971 250.312 80.6642 250.312 75.4229ZM219.205 101.751C224.43 101.751 228.926 99.6791 233.179 95.1692L229.412 88.0997C226.496 91.2685 223.58 92.9751 220.056 92.9751C217.14 92.9751 214.709 91.2685 213.251 88.3433C212.036 85.7836 211.793 82.8584 211.793 79.6892V78.7141H233.665V76.52C233.665 65.6717 232.329 59.6989 228.926 55.189C226.375 51.7763 222.608 49.9477 217.99 49.9477C213.13 49.9477 209.12 52.1418 206.204 56.4081C203.045 61.0399 201.708 67.2563 201.708 75.7885C201.587 92.122 208.026 101.751 219.205 101.751ZM218.112 57.9927C220.542 57.9927 222 59.3333 222.972 61.5274C223.701 63.4776 224.066 66.7688 224.066 70.6691H211.793C211.915 62.015 213.737 57.9927 218.112 57.9927ZM281.54 100.533H291.018V63.9651C293.327 61.1619 296 59.5773 297.944 59.5773C299.159 59.5773 300.374 59.8209 301.103 60.7959C301.833 61.893 302.197 63.4776 302.197 67.2563V100.533H311.675V62.8681C311.675 59.5773 311.31 56.2861 309.366 53.8484C307.665 51.6543 304.992 50.3136 301.589 50.3136C297.215 50.3136 292.719 52.8733 290.289 55.7986C290.167 53.2389 289.317 50.8012 289.074 49.9477L280.204 52.2638C280.69 54.9455 281.419 58.2363 281.419 64.2091V100.533H281.54ZM171.452 55.7986C171.33 53.2389 170.48 50.8012 170.237 49.9477L161.366 52.2638C161.852 54.9455 162.581 58.2363 162.581 64.2091V100.411H172.059V63.8432C174.368 61.0399 177.041 59.4553 178.986 59.4553C180.201 59.4553 181.416 59.6989 182.145 60.6743C182.874 61.771 183.238 63.3556 183.238 67.1343V100.411H192.716V62.8681C192.716 59.5773 192.351 56.2861 190.407 53.8484C188.706 51.6543 186.033 50.3136 182.631 50.3136C178.378 50.3136 173.882 52.8733 171.452 55.7986ZM55.5309 34.4677C61.1203 34.4677 65.6163 29.9578 65.6163 24.3508C65.6163 18.7438 61.1203 14.2339 55.5309 14.2339C49.9412 14.2339 45.4456 18.7438 45.4456 24.3508C45.4456 29.9578 49.9412 34.4677 55.5309 34.4677ZM102.069 100.533V62.8681C102.069 59.5773 101.705 56.2861 99.7607 53.8484C98.0596 51.6543 95.386 50.3136 91.9838 50.3136C87.6095 50.3136 83.1135 52.8733 80.6833 55.7986C80.562 53.2389 79.7113 50.8012 79.4682 49.9477L70.7197 52.3858C71.2057 55.0671 71.9347 58.3582 71.9347 64.3307V100.533H81.4124V63.9651C83.7212 61.1619 86.3944 59.5773 88.3385 59.5773C89.5536 59.5773 90.7687 59.8209 91.4977 60.7959C92.2268 61.893 92.5915 63.4776 92.5915 67.2563V100.533H102.069ZM145.692 31.7861C142.168 31.7861 139.373 34.5896 139.373 38.1244C139.373 41.6591 142.168 44.4628 145.57 44.4628C149.094 44.4628 151.889 41.6591 151.889 38.1244C151.889 34.5896 149.094 31.7861 145.692 31.7861ZM51.0349 100.533H60.5126V41.1716L51.0349 42.3906V100.533ZM128.437 37.6369C130.138 37.6369 131.839 38.2464 132.933 39.0995L135.606 31.6642C133.054 29.8359 130.26 28.9826 126.736 28.9826C124.306 28.9826 121.754 29.5921 119.445 31.4205C117.137 33.3707 114.706 37.2712 114.706 44.5848C114.706 47.7536 114.828 51.0448 114.828 51.0448H111.547V59.4553H114.828V100.411H124.549V59.5773H131.718L133.54 51.1667H124.67V43.6097C124.67 39.9529 126.128 37.6369 128.437 37.6369ZM140.831 100.533H150.431V50.3136L140.831 51.5323V100.533Z" fill="white"/>
<path d="M292.232 127.348C260.154 136.855 221.149 141 182.995 141C86.151 141 23.6945 112.477 19.3202 74.8133C17.7405 60.6738 28.798 46.9004 47.2677 35.1988C43.9867 32.761 41.9213 28.8605 41.7996 24.4725C15.0673 38.6118 0 57.1391 0 75.9103C0 117.475 73.9998 152.58 183.967 151.117C222.243 150.629 254.2 145.144 283.119 135.637C317.507 124.423 339.136 108.333 344.36 101.264C338.164 106.87 323.461 118.084 292.232 127.348ZM88.2165 16.6715C94.6566 14.4774 103.77 11.674 103.77 11.674C129.409 4.60431 157.721 0.460039 184.088 0.703817C153.711 -1.12454 126.007 0.703817 101.826 5.09189C101.826 5.09189 93.8059 6.43268 85.179 8.62668C85.179 8.62668 81.0473 9.72371 78.4958 10.4551C75.944 11.1864 72.42 12.1615 72.42 12.1615C69.9899 12.8929 67.5597 13.7461 65.1296 14.5993C67.5597 17.0371 69.0178 20.2063 69.1395 23.863C73.3925 21.9128 81.5334 18.9874 88.2165 16.6715Z" fill="#FF003A"/>
</g>
<defs>
<clipPath id="clip0_213_614">
<rect width="345" height="152" fill="white"/>
</clipPath>
</defs>
</svg>
