<svg width="836" height="364" viewBox="0 0 836 364" fill="none" xmlns="http://www.w3.org/2000/svg">
<mask id="mask0_213_632" style="mask-type:luminance" maskUnits="userSpaceOnUse" x="0" y="14" width="319" height="320">
<path d="M318.87 14.6577H0V333.24H318.87V14.6577Z" fill="white"/>
</mask>
<g mask="url(#mask0_213_632)">
<path d="M28.0277 277.848L0.00195312 233.657L20.5529 178.576L6.41844 142.683L21.9882 139.571L10.1552 125.567L40.704 83.8088L35.1922 63.1088L80.0285 48.7981L100.581 14.8765L135.463 30.4316L159.437 14.6577L183.417 30.4003L218.289 14.8401L238.841 48.7616L283.682 63.0845L278.076 83.6168L308.599 125.629L296.765 139.633L312.335 142.745L298.323 178.54L318.874 233.621L290.85 277.813L251.925 313.601L228.878 333.213L223.772 288.709L197.74 288.702L177.188 313.599L141.689 313.63L121.155 288.74H95.1025L89.9956 333.243L66.9523 313.637L28.0277 277.848Z" fill="#57B12D"/>
<path d="M100.586 137.494L125.186 137.143L122.073 104.152L47.6484 107.614L79.7186 188.525L126.432 151.494L100.586 137.494Z" fill="#57B12D"/>
<path d="M0.00195312 233.657L28.0277 277.848L66.9523 313.637L67.2625 309.592L79.7184 188.525L0.00195312 233.657Z" fill="#57B12D"/>
<path d="M100.581 14.8765L80.0283 48.798L122.072 104.152L100.581 14.8765Z" fill="#57B12D"/>
<path d="M100.586 137.494L126.433 151.499L125.186 137.143L100.586 137.494Z" fill="#1FA135"/>
<path d="M80.0291 48.7983L35.1929 63.109L122.073 104.152L80.0291 48.7983Z" fill="#1FA135"/>
<path d="M6.41943 142.683L20.554 178.576L79.7193 188.525L6.41943 142.683Z" fill="#1FA135"/>
<path d="M67.2622 309.592L100.269 243.919L79.7181 188.525L67.2622 309.592Z" fill="#1FA135"/>
<path d="M100.27 243.919L126.428 151.491L79.7188 188.525L100.27 243.919Z" fill="#B2D17C"/>
<path d="M79.7193 188.525L47.6492 107.614L40.7049 83.8091L10.1562 125.567L21.9893 139.571L6.41943 142.683L79.7193 188.525Z" fill="#B2D17C"/>
<path d="M35.1929 63.1089L40.7046 83.809L47.6488 107.614L122.073 104.152L35.1929 63.1089Z" fill="#42A932"/>
<path d="M20.5529 178.576L0.00195312 233.657L79.7184 188.525L20.5529 178.576Z" fill="#42A932"/>
<path d="M183.418 30.4003L159.438 14.6577L135.463 30.4316L159.438 82.3764L183.418 30.4003Z" fill="#57B12D"/>
<path d="M185.596 265.361L133.28 265.4L121.155 288.74L141.69 313.63L177.189 313.598L197.74 288.702L185.596 265.361Z" fill="#57B12D"/>
<path d="M271.231 107.578L196.804 104.127L193.689 137.116L218.294 137.458L192.449 151.427L239.152 188.496L271.231 107.578Z" fill="#57B12D"/>
<path d="M239.152 188.496L251.608 309.556L251.925 313.602L290.85 277.812L318.874 233.622L239.152 188.496Z" fill="#57B12D"/>
<path d="M192.448 151.426L159.435 134.654V134.686L126.427 151.491L100.27 243.92L146.045 202.84L159.435 142.154V142.124L172.825 202.809L218.601 243.889L192.448 151.426Z" fill="#57B12D"/>
<path d="M218.289 14.8394L238.842 48.7609L196.804 104.127L218.289 14.8394Z" fill="#57B12D"/>
<path d="M218.294 137.458L192.449 151.427L193.689 137.116L218.294 137.458Z" fill="#1FA135"/>
<path d="M185.596 265.362L184.66 263.813L159.437 251.987L134.215 263.844L133.28 265.4L185.596 265.362Z" fill="#1FA135"/>
<path d="M238.842 48.7617L283.682 63.0846L196.804 104.128L238.842 48.7617Z" fill="#1FA135"/>
<path d="M312.335 142.746L298.324 178.54L239.152 188.496L312.335 142.746Z" fill="#1FA135"/>
<path d="M251.608 309.556L218.6 243.891L239.152 188.496L251.608 309.556Z" fill="#1FA135"/>
<path d="M172.825 202.809L146.045 202.841L159.436 230.507L172.825 202.809Z" fill="#1FA135"/>
<path d="M218.606 243.896L192.449 151.426L239.152 188.496L218.606 243.896Z" fill="#B2D17C"/>
<path d="M183.417 30.3997L159.439 82.3712L159.437 82.3756L135.462 30.4309L100.581 14.8759L122.072 104.151L159.439 86.1058L196.802 104.127L218.289 14.8394L183.417 30.3997Z" fill="#B2D17C"/>
<path d="M312.335 142.745L296.767 139.633L308.599 125.629L278.076 83.6167L271.231 107.579L239.152 188.496L312.335 142.745Z" fill="#B2D17C"/>
<path d="M251.925 313.602L251.608 309.556L218.603 243.896L172.825 202.809L159.435 230.507L146.045 202.841L100.27 243.92L67.2628 309.593L66.9526 313.639L89.9959 333.243L95.1029 288.741H121.155L133.28 265.4L134.215 263.844L159.438 251.987L184.66 263.813L185.596 265.362L197.739 288.709H223.772L228.88 333.213L251.925 313.602Z" fill="#B2D17C"/>
<path d="M172.825 202.809L159.438 142.131V142.161L146.045 202.839L172.825 202.809Z" fill="#42A932"/>
<path d="M159.439 86.1064L122.073 104.152L125.186 137.143L126.427 151.462L159.436 134.658V134.626L192.448 151.426L193.688 137.116L196.804 104.128L159.439 86.1064Z" fill="#42A932"/>
<path d="M283.682 63.0845L278.077 83.6168L271.231 107.579L196.804 104.128L283.682 63.0845Z" fill="#42A932"/>
<path d="M298.324 178.54L318.874 233.621L239.152 188.496L298.324 178.54Z" fill="#42A932"/>
</g>
<path d="M389.009 116.636V208.57H425.773V234.524H358.346V116.636H389.009ZM458.176 182.772H491.185C490.456 179.02 488.578 175.997 485.553 173.704C482.528 171.306 479.035 170.108 475.072 170.108C470.795 170.108 467.093 171.202 463.964 173.391C460.939 175.58 459.01 178.707 458.176 182.772ZM517.624 196.218V199.189H457.706C457.706 211.071 463.651 217.012 475.541 217.012C481.695 217.012 486.232 214.563 489.152 209.664H516.529C514.339 218.628 509.437 225.455 501.824 230.146C494.21 234.836 485.501 237.181 475.697 237.181C461.93 237.181 450.719 233.429 442.062 225.924C433.51 218.42 429.233 207.944 429.233 194.498C429.233 181.261 433.301 170.837 441.436 163.228C449.675 155.515 460.418 151.659 473.664 151.659C487.535 151.659 498.329 155.671 506.048 163.697C513.766 171.619 517.624 182.459 517.624 196.218ZM538.643 163.228C548.03 155.515 559.503 151.659 573.061 151.659C586.619 151.659 598.039 155.515 607.322 163.228C616.709 170.942 621.402 181.365 621.402 194.498C621.402 207.632 616.709 218.054 607.322 225.768C598.039 233.377 586.619 237.181 573.061 237.181C559.607 237.181 548.186 233.377 538.799 225.768C529.413 218.054 524.72 207.632 524.72 194.498C524.72 181.365 529.36 170.942 538.643 163.228ZM586.359 181.678C583.126 178.134 578.693 176.362 573.061 176.362C567.429 176.362 562.944 178.134 559.607 181.678C556.374 185.117 554.757 189.391 554.757 194.498C554.757 199.71 556.374 204.036 559.607 207.475C562.944 210.811 567.429 212.478 573.061 212.478C578.693 212.478 583.126 210.811 586.359 207.475C589.696 204.036 591.365 199.71 591.365 194.498C591.365 189.391 589.696 185.117 586.359 181.678ZM633.309 234.524V104.754H661.782V162.134C667.831 155.151 676.122 151.659 686.657 151.659C698.337 151.659 707.933 155.827 715.442 164.167C723.056 172.506 726.863 182.563 726.863 194.342C726.863 206.121 723.056 216.231 715.442 224.674C707.829 233.013 698.13 237.181 686.344 237.181C681.338 237.181 676.644 236.243 672.264 234.367C667.987 232.387 664.598 229.468 662.095 225.612H661.782V234.524H633.309ZM692.445 181.678C689.212 178.134 684.779 176.362 679.147 176.362C673.515 176.362 669.031 178.134 665.693 181.678C662.46 185.117 660.843 189.391 660.843 194.498C660.843 199.71 662.46 204.036 665.693 207.475C669.031 210.811 673.515 212.478 679.147 212.478C684.779 212.478 689.212 210.811 692.445 207.475C695.783 204.036 697.451 199.71 697.451 194.498C697.451 189.391 695.783 185.117 692.445 181.678ZM769.36 154.317V234.524H740.887V154.317H769.36ZM743.859 112.259C746.988 109.132 750.743 107.568 755.123 107.568C759.503 107.568 763.258 109.132 766.387 112.259C769.516 115.386 771.08 119.138 771.08 123.516C771.08 127.894 769.516 131.646 766.387 134.773C763.258 137.9 759.503 139.463 755.123 139.463C750.743 139.463 746.988 137.9 743.859 134.773C740.73 131.646 739.166 127.894 739.166 123.516C739.166 119.138 740.73 115.386 743.859 112.259ZM819.227 177.769V234.524H790.755V177.769H781.524V154.317H790.755V130.239H819.227V154.317H835.341V177.769H819.227Z" fill="white"/>
</svg>
