<svg width="141" height="51" viewBox="0 0 141 51" fill="none" xmlns="http://www.w3.org/2000/svg">
<path d="M0.0533104 2.82335C0.0533104 1.75721 0.906223 0.904297 1.97237 0.904297H7.88945C8.9556 0.904297 10.6081 1.11753 11.621 1.33076C11.621 1.33076 13.1669 1.7039 14.2863 3.35642L28.4127 25.3189C28.9991 26.1719 29.852 27.6645 30.3851 28.5707C30.3851 28.5707 33.2636 33.4216 35.8224 39.6586C34.4897 32.9952 34.1699 29.8501 34.1699 25.852V2.82335C34.1699 1.75721 35.0228 0.904297 36.0889 0.904297H43.0188C44.085 0.904297 44.9379 1.75721 44.9379 2.82335V48.7741C44.9379 49.8402 44.085 50.6931 43.0188 50.6931H37.0484C35.9823 50.6931 34.3298 50.4799 33.3169 50.2667C33.3169 50.2667 31.771 49.8935 30.6516 48.241L16.5252 26.2785C15.9388 25.4256 15.0859 23.933 14.5528 23.0267C14.5528 23.0267 11.6743 18.1758 9.11552 11.9389C10.3416 18.6023 10.768 21.7474 10.768 25.6388V48.7208C10.768 49.7869 9.91513 50.6398 8.84898 50.6398H1.91906C0.852917 50.6398 0 49.7869 0 48.7208V2.82335H0.0533104Z" fill="#FF6B00"/>
<path d="M51.1221 27.505C51.1221 26.4389 51.975 25.5859 53.0411 25.5859H71.0056C72.0718 25.5859 72.9247 26.4389 72.9247 27.505V32.3559C72.9247 33.4221 72.0718 34.275 71.0056 34.275H53.0411C51.975 34.275 51.1221 33.4221 51.1221 32.3559V27.505Z" fill="white"/>
<path d="M78.6816 18.4443C78.6816 17.3781 79.5345 16.5252 80.6007 16.5252H87.5306C88.5968 16.5252 89.4497 17.3781 89.4497 18.4443V48.776C89.4497 49.8421 88.5968 50.6951 87.5306 50.6951H80.6007C79.5345 50.6951 78.6816 49.8421 78.6816 48.776V18.4443ZM89.3431 5.38402C89.3431 8.36922 86.9442 10.7147 84.0124 10.7147C81.0805 10.7147 78.6816 8.31591 78.6816 5.38402C78.6816 2.39882 81.0805 0 84.0124 0C86.9442 0 89.3431 2.45213 89.3431 5.38402Z" fill="white"/>
<path d="M92.3809 50.6404C95.9524 44.3502 101.07 36.0343 105.654 29.1043L106.667 27.5584C107.254 26.7055 107.893 25.746 108.053 25.4261C108.266 25.1063 108.266 24.6265 108.053 24.3067C107.84 23.9868 107.2 23.0273 106.614 22.1744C106.614 22.1744 104.055 18.4429 102.722 16.3639C100.43 12.899 97.445 8.10133 95.8991 5.43597L94.9396 3.78345C94.4065 2.87723 93.8201 1.8644 93.6069 1.49125C93.3937 1.1714 94.0867 0.851562 95.0995 0.851562H104.961C106.027 0.851562 107.04 1.1714 107.2 1.49125C107.413 1.8644 107.947 2.87723 108.48 3.83676C108.48 3.83676 113.437 11.513 117.542 17.4301C119.514 20.2554 124.898 27.2919 125.485 28.1448C125.485 28.1448 130.869 35.6078 133.641 40.0323C135.453 42.9642 137.425 45.5762 138.758 47.8684C139.238 48.7213 139.611 49.2544 140.357 50.5871H128.416C127.35 50.5871 126.124 49.8408 125.644 48.8813C125.644 48.8813 123.885 45.5229 121.806 41.8447C119.141 37.1537 117.968 35.0214 115.836 31.6098L115.463 32.1961C114.93 33.1024 114.077 34.5416 113.544 35.4479C113.544 35.4479 108.373 44.4035 105.868 49.1478C105.494 49.8941 104.322 50.5338 103.256 50.5338H92.3809V50.6404Z" fill="white"/>
<path d="M119.248 14.5509C119.248 14.5509 123.299 7.78091 126.285 2.23697C126.658 1.49068 127.83 0.904297 128.897 0.904297H137.639C138.705 0.904297 139.345 1.17083 139.132 1.54398C138.918 1.86383 138.332 2.87666 137.746 3.78288L127.777 19.5085L125.645 22.9734L119.248 14.5509Z" fill="white"/>
</svg>
