<svg width="462" height="89" viewBox="0 0 462 89" fill="none" xmlns="http://www.w3.org/2000/svg">
<path d="M38.848 0.191994C60.992 0.191994 73.28 10.432 73.28 29.76C73.28 48.96 60.992 59.712 38.848 59.712H23.744V88H0.448V0.191994H38.848ZM38.848 40.896C45.888 40.896 49.728 36.8 49.728 29.888C49.728 23.232 45.888 18.88 38.848 18.88H23.744V40.896H38.848ZM144.01 69.696L145.162 87.104C142.474 88 138.89 88.64 134.538 88.64C127.626 88.64 121.738 85.952 118.666 79.296H117.386C115.21 83.392 110.346 88.64 98.442 88.64C85.002 88.64 77.194 82.112 77.194 71.488C77.194 54.464 95.882 50.88 112.65 50.88H116.234V49.344C116.234 44.608 113.546 41.28 107.402 41.28C102.794 41.28 99.722 43.84 99.21 47.296H78.986C80.138 32.448 91.53 24.64 108.426 24.64C128.394 24.64 138.378 35.008 138.378 51.52V67.008C138.378 69.312 139.274 70.336 140.81 70.336C141.834 70.336 142.474 70.208 144.01 69.696ZM105.61 72.512C111.754 72.512 116.234 69.824 116.234 65.344V61.76H111.37C104.202 61.76 99.082 63.68 99.082 67.904C99.082 70.976 101.642 72.512 105.61 72.512ZM191.184 24.64C192.336 24.64 194.64 24.768 195.408 25.152V47.808C193.872 47.168 193.104 47.04 190.8 47.04C182.864 47.04 176.848 51.008 175.568 57.92V88H152.528V25.28H174.928L175.312 35.52C178.128 29.12 183.12 24.64 191.184 24.64ZM245.244 64.064H265.212C265.212 79.808 255.996 88.64 238.716 88.64C221.436 88.64 212.22 79.808 212.22 63.04V43.072H203.26V25.28H213.5V6.976H235.26V25.28H256.38V43.2H235.26V64.064C235.26 68.544 236.924 70.72 240.252 70.72C243.452 70.72 245.244 68.544 245.244 64.064ZM314.727 24.64C329.191 24.64 335.975 35.904 335.975 48.832V88H312.935V54.464C312.935 48.832 310.375 44.736 304.615 44.736C299.239 44.736 295.783 48.96 295.783 54.08V88H272.743V25.28H295.143L295.783 34.368C299.111 28.48 305.255 24.64 314.727 24.64ZM408.656 57.408V61.248H367.184C368.592 68.544 373.072 71.232 378.832 71.232C385.104 71.232 387.152 68.16 387.92 66.368H408.656C406.864 76.864 398.16 88.64 377.296 88.64C358.608 88.64 345.296 75.584 345.296 56.768C345.296 37.696 359.376 24.64 377.936 24.64C398.416 24.64 408.656 39.104 408.656 57.408ZM378.192 40.768C373.328 40.768 368.848 42.816 367.312 49.6H387.92C386.896 42.944 383.184 40.768 378.192 40.768ZM457.399 24.64C458.551 24.64 460.855 24.768 461.623 25.152V47.808C460.087 47.168 459.319 47.04 457.015 47.04C449.079 47.04 443.063 51.008 441.783 57.92V88H418.743V25.28H441.143L441.527 35.52C444.343 29.12 449.335 24.64 457.399 24.64Z" fill="white"/>
</svg>
