<svg width="404" height="150" viewBox="0 0 404 150" fill="none" xmlns="http://www.w3.org/2000/svg">
<path d="M76.3369 51.1457H98.681V26.4262C98.681 19.5226 95.4147 16.0336 88.7338 16.0336H86.2099C79.6032 16.0336 76.2627 19.5226 76.2627 26.4262V51.1457H76.3369ZM76.3369 66.9573L76.4112 94.1264C76.4112 101.03 79.7516 104.445 86.3583 104.445H89.2534C95.8601 104.445 99.2006 101.03 99.2006 94.1264V80.7645H114.418V93.4583C114.418 110.903 105.956 119.811 89.1792 119.811H85.8387C69.0621 119.811 60.5996 110.977 60.5996 95.5368V29.0986C60.5996 9.57539 69.0621 0.741699 85.8387 0.741699H89.1792C105.956 0.741699 114.418 9.57539 114.418 27.0201L114.344 66.883H76.3369V66.9573Z" fill="white"/>
<path d="M140.325 98.2092C144.631 102.069 149.605 104.222 154.801 104.222C160.591 104.222 163.931 101.401 163.931 94.7203V25.6839C163.931 19.0029 160.591 16.1821 154.801 16.1821C149.605 16.1821 144.631 18.3348 140.325 22.1949V98.2092ZM124.588 2.07787H140.325V9.64961C144.037 5.56681 150.421 0.815918 159.552 0.815918C172.988 0.815918 179.595 10.095 179.595 23.9023V96.7988C179.595 110.606 172.988 119.885 159.552 119.885C150.421 119.885 144.037 115.357 140.325 111.497V149.059H124.588V2.07787Z" fill="white"/>
<path d="M226.732 98.8773V60.499L212.48 66.1407C206.69 68.5161 204.834 71.5597 204.834 78.2406V95.908C204.834 101.55 207.506 104.296 212.48 104.296C217.231 104.296 221.61 102.589 226.732 98.8773ZM189.096 77.9437C189.096 63.4683 193.625 57.6782 205.65 53.3727L226.732 45.8009V26.4262C226.732 19.5226 223.392 15.8852 216.785 15.8852H214.261C207.655 15.8852 204.314 19.5226 204.314 26.4262V42.9059H189.022V27.0943C189.022 9.64961 197.485 0.815918 214.261 0.815918H217.231C234.007 0.815918 242.47 9.64961 242.47 27.0943V118.549H226.732V111.2C222.427 115.505 216.563 119.811 207.506 119.811C194.887 119.811 189.096 112.239 189.096 99.3227V77.9437Z" fill="white"/>
<path d="M306.013 118.549H290.276V24.7189C290.276 18.9287 287.603 16.3306 282.852 16.3306C278.547 16.3306 273.944 18.0379 268.377 22.1207V118.549H252.64V2.07789H268.377V9.64962C272.979 5.12143 278.918 0.741699 287.603 0.741699C295.695 0.741699 301.039 4.23063 303.934 10.2435C309.576 5.26989 316.183 0.741699 325.239 0.741699C337.413 0.741699 343.649 8.53613 343.649 21.2299V118.475H327.912V24.7189C327.912 18.9287 325.239 16.3306 320.488 16.3306C316.183 16.3306 311.58 18.0379 306.013 22.1207V118.549Z" fill="white"/>
<path d="M0.100098 52.8532V68.5906L40.4827 108.157V86.2579L14.0558 60.4992L40.4827 34.2208V12.7676L0.100098 52.8532Z" fill="#00ABCD"/>
<path d="M363.618 34.2208L390.044 60.4992L363.618 86.3322V108.157L404 68.5906V52.8532L363.618 12.7676V34.2208Z" fill="#00ABCD"/>
</svg>
