<svg width="2692" height="1171" viewBox="0 0 2692 1171" fill="none" xmlns="http://www.w3.org/2000/svg">
<g clip-path="url(#clip0_396_1665)">
<path d="M691.263 1008.13C674.373 995.754 653.292 990.525 632.576 993.569C611.861 996.613 593.176 1007.69 580.563 1024.39C574.371 1032.64 569.881 1042.03 567.353 1052.03C564.826 1062.02 564.311 1072.42 565.84 1082.61C567.368 1092.81 570.909 1102.6 576.257 1111.41C581.605 1120.23 588.652 1127.89 596.989 1133.96C613.88 1146.34 634.965 1151.56 655.683 1148.52C676.401 1145.47 695.084 1134.38 707.689 1117.67C713.877 1109.42 718.364 1100.03 720.889 1090.04C723.415 1080.05 723.928 1069.65 722.4 1059.46C720.871 1049.27 717.331 1039.48 711.986 1030.67C706.641 1021.86 699.597 1014.19 691.263 1008.13Z" fill="#433298"/>
<path d="M554.902 846.005C481.289 791.999 377.374 807.273 322.789 880.148C309.822 897.438 300.422 917.131 295.133 938.084C289.844 959.037 288.773 980.832 291.981 1002.2C295.19 1023.57 302.614 1044.09 313.823 1062.57C325.032 1081.05 339.802 1097.12 357.275 1109.84C430.913 1163.84 534.803 1148.57 589.388 1075.72C602.349 1058.43 611.745 1038.73 617.03 1017.78C622.315 996.823 623.385 975.028 620.177 953.657C616.968 932.287 609.546 911.766 598.341 893.286C587.136 874.806 572.371 858.735 554.902 846.005Z" fill="#FFBC0F"/>
<path d="M100.165 778.41C209.972 858.985 364.978 836.189 446.396 727.514C527.788 618.84 504.756 465.414 394.948 384.864C285.116 304.289 130.11 327.085 48.6918 435.76C-32.7007 544.435 -9.64253 697.859 100.165 778.41Z" fill="#FE803C"/>
<path d="M285.933 396.389C360.285 450.931 465.246 435.504 520.341 361.915C533.441 344.454 542.94 324.564 548.284 303.402C553.628 282.24 554.713 260.227 551.473 238.642C548.234 217.057 540.735 196.331 529.414 177.668C518.092 159.006 503.173 142.778 485.524 129.929C411.172 75.3619 306.211 90.8142 251.116 164.403C238.016 181.864 228.517 201.754 223.173 222.916C217.828 244.078 216.744 266.092 219.984 287.676C223.223 309.261 230.722 329.987 242.043 348.65C253.365 367.313 268.284 383.54 285.933 396.389Z" fill="#EA5F47"/>
<path d="M593.978 162.822C610.863 175.192 631.941 180.421 652.652 177.376C673.364 174.332 692.044 163.259 704.652 146.554C710.839 138.309 715.324 128.917 717.847 118.923C720.371 108.93 720.882 98.5349 719.351 88.3424C717.82 78.1498 714.278 68.363 708.93 59.551C703.583 50.7391 696.536 43.0777 688.2 37.0122C671.313 24.6341 650.23 19.4011 629.512 22.4457C608.795 25.4903 590.11 36.5675 577.5 53.2803C571.314 61.5255 566.829 70.9177 564.305 80.911C561.782 90.9043 561.271 101.299 562.802 111.492C564.333 121.684 567.875 131.471 573.222 140.283C578.57 149.095 585.642 156.757 593.978 162.822Z" fill="#4EA99C"/>
<path d="M1046.73 575.567V598.465C1046.73 644.243 1031.58 681.743 1001.3 710.964C971.031 739.897 931.513 754.363 882.743 754.363C831.117 754.363 788.419 737.678 754.648 704.309C721.183 670.94 704.45 629.938 704.45 581.304C704.45 532.976 721.183 492.136 754.648 458.783C788.402 425.074 830.148 408.228 879.887 408.245C911.107 408.245 939.632 415.393 965.462 429.69C991.275 443.969 1011.35 463.195 1025.68 487.367L978.369 514.549C969.441 498.655 956.212 485.939 938.68 476.403C921.148 466.544 901.551 461.614 879.887 461.614C844.823 461.614 815.983 473.063 793.367 495.96C770.751 518.858 759.435 547.459 759.418 581.763C759.401 616.067 770.709 644.515 793.342 667.107C816.298 689.682 846.26 700.969 883.228 700.969C912.867 700.969 936.929 694.135 955.413 680.468C973.904 666.988 986.694 647.092 991.276 624.677H879.402V575.567H1046.73Z" fill="white"/>
<path d="M1175.84 695.717H1324.04V748.168H1120.88V414.442H1321.64V466.867H1175.84V553.639H1309.7V605.605H1175.84V695.717Z" fill="white"/>
<path d="M1599.03 414.442H1654.02V748.142H1610.99L1453.23 521.689V748.142H1398.26V414.442H1441.29L1599.03 640.895V414.442Z" fill="white"/>
<path d="M1799.72 695.717H1947.91V748.168H1744.75V414.442H1945.51V466.867H1799.72V553.639H1933.58V605.605H1799.72V695.717Z" fill="white"/>
<path d="M2133.53 754.363C2101.34 754.363 2073.93 747.053 2051.29 732.434C2029.34 718.278 2012.83 697.101 2004.46 672.36L2051.78 644.719C2065.16 682.202 2092.89 700.952 2134.95 700.969C2155.67 700.969 2171.12 696.991 2181.33 689.036C2191.83 680.774 2197.09 670.133 2197.09 657.111C2197.09 643.444 2191.51 633.109 2180.36 626.105C2169.2 618.795 2149.44 610.857 2121.08 602.289C2107.96 598.486 2095.03 594.027 2082.36 588.928C2071.35 584.182 2060.8 578.438 2050.83 571.768C2040.44 564.624 2032.04 554.943 2026.45 543.643C2021.01 532.508 2018.29 519.47 2018.31 504.528C2018.31 474.983 2028.83 451.627 2049.86 434.458C2070.9 416.966 2096.24 408.228 2125.87 408.245C2152.64 408.245 2176.06 414.756 2196.15 427.777C2216.21 440.815 2231.67 458.775 2242.52 481.656L2196.15 508.353C2182.12 477.21 2158.69 461.639 2125.87 461.639C2109.92 461.639 2097.18 465.447 2087.64 473.063C2078.07 480.372 2073.28 490.385 2073.28 503.1C2073.28 515.509 2078.07 525.369 2087.64 532.678C2097.5 539.665 2115.19 547.136 2140.69 555.092C2153.45 559.222 2162.69 562.393 2168.42 564.603C2174.47 566.523 2182.75 569.702 2193.26 574.139C2204.11 578.61 2212.24 583.063 2217.65 587.5C2223.09 591.937 2228.83 597.496 2234.87 604.176C2241.24 610.857 2245.71 618.49 2248.26 627.074C2250.81 635.642 2252.08 645.331 2252.08 656.142C2252.08 686.35 2241.08 710.353 2219.08 728.151C2197.43 745.626 2168.91 754.363 2133.53 754.363Z" fill="white"/>
<path d="M2321 414.442H2375.97V748.142H2321V414.442Z" fill="white"/>
<path d="M2573.47 754.363C2541.28 754.363 2513.87 747.053 2491.23 732.434C2469.28 718.278 2452.77 697.101 2444.4 672.36L2491.72 644.719C2505.1 682.202 2532.83 700.952 2574.9 700.969C2595.61 700.969 2611.07 696.991 2621.27 689.036C2631.78 680.774 2637.03 670.133 2637.03 657.111C2637.03 643.444 2631.46 633.109 2620.3 626.105C2609.15 618.795 2589.39 610.857 2561.02 602.289C2547.9 598.486 2534.98 594.027 2522.3 588.928C2511.3 584.146 2500.74 578.404 2490.75 571.768C2480.37 564.621 2471.98 554.94 2466.39 543.643C2460.95 532.508 2458.24 519.47 2458.25 504.528C2458.25 474.983 2468.77 451.627 2489.81 434.458C2510.84 416.966 2536.18 408.228 2565.82 408.245C2592.58 408.245 2616.01 414.756 2636.09 427.777C2656.15 440.815 2671.61 458.775 2682.46 481.656L2636.09 508.353C2622.06 477.21 2598.64 461.639 2565.82 461.639C2549.87 461.639 2537.12 465.447 2527.58 473.063C2518.01 480.372 2513.22 490.385 2513.22 503.1C2513.22 515.509 2518.01 525.369 2527.58 532.678C2537.45 539.665 2555.13 547.136 2580.64 555.092C2593.39 559.222 2602.63 562.393 2608.36 564.603C2614.42 566.523 2622.7 569.702 2633.21 574.139C2644.06 578.61 2652.18 583.063 2657.59 587.5C2663.02 591.937 2668.75 597.496 2674.81 604.176C2681.19 610.857 2685.65 618.49 2688.2 627.074C2690.75 635.642 2692.03 645.331 2692.03 656.142C2692.03 686.35 2681.02 710.353 2659.02 728.151C2637.37 745.626 2608.86 754.363 2573.47 754.363Z" fill="white"/>
</g>
<defs>
<clipPath id="clip0_396_1665">
<rect width="2692" height="1171" fill="white"/>
</clipPath>
</defs>
</svg>
