<svg width="436" height="192" viewBox="0 0 436 192" fill="none" xmlns="http://www.w3.org/2000/svg">
<mask id="mask0_523_11" style="mask-type:luminance" maskUnits="userSpaceOnUse" x="0" y="0" width="436" height="192">
<path d="M435.84 0H0V192H435.84V0Z" fill="white"/>
</mask>
<g mask="url(#mask0_523_11)">
<path d="M324.203 128.528C340.474 128.528 345.54 111.284 345.54 95.4257C345.54 74.178 336.636 63.0924 324.203 63.0924C308.544 63.0924 303.019 80.3369 303.172 95.7334C303.326 110.976 307.623 128.528 324.203 128.528ZM316.22 95.2716C316.22 88.9591 316.22 74.178 324.203 74.178C332.799 74.178 332.492 88.805 332.492 95.5798C332.492 102.046 332.492 117.751 324.51 117.751C315.913 117.597 316.22 101.892 316.22 95.2716ZM276.923 128.528C283.523 128.528 289.203 125.911 294.576 120.214L289.817 111.284C286.133 115.287 282.45 117.443 277.998 117.443C274.314 117.443 271.243 115.287 269.401 111.592C267.866 108.359 267.559 104.664 267.559 100.661V99.4289H295.19V96.6574C295.19 82.9543 293.502 75.4097 289.203 69.713C285.98 65.4022 281.222 63.0924 275.388 63.0924C269.248 63.0924 264.182 65.8639 260.498 71.2529C256.508 77.1036 254.819 84.9559 254.819 95.7334C254.666 116.365 262.8 128.528 276.923 128.528ZM275.542 73.2545C278.612 73.2545 280.454 74.9479 281.681 77.7194C282.602 80.1828 283.063 84.3401 283.063 89.2668H267.559C267.713 78.3353 270.015 73.2545 275.542 73.2545ZM355.671 126.99H367.644V80.7986C370.561 77.2577 373.938 75.2561 376.394 75.2561C377.929 75.2561 379.464 75.5638 380.385 76.7954C381.307 78.1812 381.767 80.1828 381.767 84.9559V126.99H393.74V79.4129C393.74 75.2561 393.279 71.0988 390.823 68.0196C388.674 65.2481 385.298 63.5546 380.999 63.5546C375.473 63.5546 369.793 66.7879 366.723 70.483C366.569 67.2497 365.495 64.1705 365.188 63.0924L353.983 66.018C354.597 69.4054 355.518 73.5622 355.518 81.1068V126.99H355.671ZM216.596 70.483C216.442 67.2497 215.368 64.1705 215.061 63.0924L203.854 66.018C204.468 69.4054 205.389 73.5622 205.389 81.1068V126.836H217.363V80.6446C220.28 77.1036 223.657 75.102 226.114 75.102C227.649 75.102 229.184 75.4097 230.105 76.6418C231.025 78.0271 231.485 80.0287 231.485 84.8018V126.836H243.459V79.4129C243.459 75.2561 242.998 71.0988 240.542 68.0196C238.393 65.2481 235.016 63.5546 230.718 63.5546C225.346 63.5546 219.666 66.7879 216.596 70.483ZM70.1524 43.5387C77.2135 43.5387 82.8934 37.842 82.8934 30.7595C82.8934 23.6769 77.2135 17.9802 70.1524 17.9802C63.0909 17.9802 57.4116 23.6769 57.4116 30.7595C57.4116 37.842 63.0909 43.5387 70.1524 43.5387ZM128.944 126.99V79.4129C128.944 75.2561 128.484 71.0988 126.028 68.0196C123.879 65.2481 120.502 63.5546 116.204 63.5546C110.677 63.5546 104.998 66.7879 101.928 70.483C101.774 67.2497 100.7 64.1705 100.393 63.0924L89.3405 66.1721C89.9545 69.559 90.8754 73.7162 90.8754 81.2604V126.99H102.849V80.7986C105.765 77.2577 109.142 75.2561 111.598 75.2561C113.133 75.2561 114.668 75.5638 115.589 76.7954C116.511 78.1812 116.971 80.1828 116.971 84.9559V126.99H128.944ZM184.053 40.1514C179.601 40.1514 176.07 43.6927 176.07 48.1577C176.07 52.6226 179.601 56.1641 183.899 56.1641C188.351 56.1641 191.882 52.6226 191.882 48.1577C191.882 43.6927 188.351 40.1514 184.053 40.1514ZM64.4726 126.99H76.4458V52.0068L64.4726 53.5466V126.99ZM162.255 47.5419C164.404 47.5419 166.553 48.3118 167.935 49.3894L171.312 39.9974C168.088 37.688 164.558 36.6102 160.106 36.6102C157.036 36.6102 153.812 37.3801 150.895 39.6896C147.98 42.153 144.909 47.08 144.909 56.3182C144.909 60.3209 145.063 64.4782 145.063 64.4782H140.918V75.102H145.063V126.836H157.343V75.2561H166.4L168.702 64.6322H157.496V55.0865C157.496 50.4674 159.338 47.5419 162.255 47.5419ZM177.912 126.99H190.04V63.5546L177.912 65.094V126.99Z" fill="#005090"/>
<path d="M369.178 160.861C328.654 172.869 279.378 178.105 231.178 178.105C108.835 178.105 29.9334 142.076 24.4073 94.501C22.4116 76.6406 36.3806 59.2426 59.7135 44.4616C55.5686 41.3823 52.9593 36.4554 52.8056 30.9126C19.0346 48.7728 0 72.1757 0 95.8867C0 148.389 93.4842 192.733 232.406 190.885C280.76 190.268 321.132 183.34 357.665 171.331C401.108 157.166 428.432 136.842 435.031 127.912C427.204 134.994 408.63 149.159 369.178 160.861ZM111.444 21.0587C119.58 18.2872 131.093 14.7461 131.093 14.7461C163.483 5.81597 199.25 0.581103 232.559 0.889033C194.184 -1.42047 159.185 0.889033 128.637 6.43186C128.637 6.43186 118.505 8.12549 107.607 10.8969C107.607 10.8969 102.387 12.2826 99.1641 13.2064C95.9404 14.1302 91.4885 15.3619 91.4885 15.3619C88.4185 16.2858 85.3484 17.3635 82.2785 18.4412C85.3484 21.5206 87.1905 25.5237 87.3442 30.1427C92.7171 27.6793 103.001 23.9841 111.444 21.0587Z" fill="#FF003A"/>
</g>
</svg>
