<svg width="158" height="100" viewBox="0 0 158 100" fill="none" xmlns="http://www.w3.org/2000/svg">
<path d="M21.2865 44.2719L11.5205 30.0769L6.43274 34.9067V44.2719H0V1.27441H6.43274V28.5453L20.4678 13.5258H27.4855L15.614 26.4249L28.1287 44.2719H21.2865Z" fill="white"/>
<path d="M42.8368 44.8611C40.4587 44.8611 38.2948 44.4488 36.3455 43.6242C34.3963 42.7604 32.7199 41.602 31.3164 40.149C29.9517 38.6963 28.8798 37.0076 28.1 35.0836C27.3592 33.1595 26.9888 31.1176 26.9888 28.9579C26.9888 26.7983 27.3592 24.7565 28.1 22.8324C28.8798 20.869 29.9517 19.1609 31.3164 17.708C32.7199 16.2158 34.3963 15.0574 36.3455 14.2328C38.2948 13.3689 40.4781 12.937 42.8953 12.937C45.2734 12.937 47.4177 13.3689 49.3279 14.2328C51.2774 15.0967 52.9342 16.2551 54.2988 17.708C55.6633 19.1216 56.6964 20.7904 57.3981 22.7145C58.1389 24.5992 58.5093 26.5824 58.5093 28.6636C58.5093 29.1347 58.4899 29.5863 58.4509 30.0181C58.4118 30.4108 58.3728 30.7447 58.3339 31.0195H33.8311C33.948 32.3938 34.2597 33.6308 34.7667 34.7301C35.3124 35.8297 35.9948 36.7917 36.8134 37.6163C37.6711 38.4017 38.6264 39.0104 39.6789 39.4422C40.7704 39.8742 41.901 40.0901 43.0707 40.0901C43.9284 40.0901 44.7667 39.992 45.5854 39.7956C46.4431 39.5601 47.2227 39.2461 47.9244 38.8533C48.6262 38.4213 49.2501 37.9108 49.7958 37.322C50.3416 36.7329 50.7705 36.0849 51.0824 35.3781L56.5795 36.9686C55.527 39.2851 53.7725 41.1897 51.3163 42.6817C48.8991 44.1347 46.0727 44.8611 42.8368 44.8611ZM52.1351 26.5431C52.018 25.2472 51.6867 24.0497 51.1409 22.9501C50.6341 21.8506 49.9712 20.9279 49.1526 20.1818C48.3339 19.3964 47.3787 18.7878 46.2871 18.3559C45.1956 17.9239 44.0453 17.708 42.8368 17.708C41.6281 17.708 40.4781 17.9239 39.3866 18.3559C38.3338 18.7878 37.3983 19.3964 36.5796 20.1818C35.7607 20.9279 35.098 21.8506 34.5913 22.9501C34.0843 24.0497 33.7724 25.2472 33.6555 26.5431H52.1351Z" fill="white"/>
<path d="M76.154 44.8611C73.7759 44.8611 71.6122 44.4488 69.6629 43.6242C67.7134 42.7604 66.037 41.602 64.6335 40.149C63.2691 38.6963 62.197 37.0076 61.4171 35.0836C60.6766 33.1595 60.3062 31.1176 60.3062 28.9579C60.3062 26.7983 60.6766 24.7565 61.4171 22.8324C62.197 20.869 63.2691 19.1609 64.6335 17.708C66.037 16.2158 67.7134 15.0574 69.6629 14.2328C71.6122 13.3689 73.7953 12.937 76.2125 12.937C78.5906 12.937 80.7349 13.3689 82.6453 14.2328C84.5946 15.0967 86.2516 16.2551 87.616 17.708C88.9807 19.1216 90.0138 20.7904 90.7155 22.7145C91.4563 24.5992 91.8265 26.5824 91.8265 28.6636C91.8265 29.1347 91.8071 29.5863 91.768 30.0181C91.7292 30.4108 91.6901 30.7447 91.6511 31.0195H67.1482C67.2652 32.3938 67.5771 33.6308 68.0838 34.7301C68.6296 35.8297 69.3119 36.7917 70.1306 37.6163C70.9883 38.4017 71.9435 39.0104 72.9963 39.4422C74.0878 39.8742 75.2184 40.0901 76.3881 40.0901C77.2458 40.0901 78.0839 39.992 78.9025 39.7956C79.7602 39.5601 80.5401 39.2461 81.2418 38.8533C81.9436 38.4213 82.5672 37.9108 83.1132 37.322C83.659 36.7329 84.0879 36.0849 84.3996 35.3781L89.8969 36.9686C88.8441 39.2851 87.0896 41.1897 84.6336 42.6817C82.2165 44.1347 79.3898 44.8611 76.154 44.8611ZM85.4523 26.5431C85.3354 25.2472 85.004 24.0497 84.4583 22.9501C83.9513 21.8506 83.2886 20.9279 82.4699 20.1818C81.6511 19.3964 80.6961 18.7878 79.6043 18.3559C78.5127 17.9239 77.3627 17.708 76.154 17.708C74.9455 17.708 73.7953 17.9239 72.7037 18.3559C71.6512 18.7878 70.7154 19.3964 69.8968 20.1818C69.0781 20.9279 68.4152 21.8506 67.9084 22.9501C67.4017 24.0497 67.0898 25.2472 66.9728 26.5431H85.4523Z" fill="white"/>
<path d="M123.039 44.2722H116.606V27.0142C116.606 24.1086 116.138 22.0077 115.202 20.7119C114.306 19.3768 112.961 18.7093 111.167 18.7093C110.232 18.7093 109.296 18.886 108.36 19.2394C107.425 19.5928 106.547 20.1033 105.729 20.7708C104.91 21.3991 104.169 22.1648 103.507 23.0679C102.883 23.9317 102.395 24.8938 102.045 25.954V44.2722H95.6118V13.4671H101.46V19.6517C102.629 17.5705 104.325 15.9409 106.547 14.7629C108.77 13.5456 111.226 12.937 113.916 12.937C115.748 12.937 117.249 13.2708 118.419 13.9383C119.589 14.6059 120.505 15.5286 121.167 16.7066C121.869 17.8454 122.356 19.1805 122.629 20.7119C122.902 22.204 123.039 23.7945 123.039 25.4829V44.2722Z" fill="white"/>
<path d="M15.8479 98.6274C13.4698 98.6274 11.3061 98.2152 9.35671 97.3904C7.4074 96.5265 5.731 95.3681 4.32748 93.9154C2.96295 92.4624 1.89084 90.774 1.11111 88.8499C0.37037 86.9259 0 84.8838 0 82.7243C0 80.5645 0.37037 78.5227 1.11111 76.5986C1.89084 74.6352 2.96295 72.927 4.32748 71.4743C5.731 69.982 7.4074 68.8236 9.35671 67.999C11.3061 67.1352 13.4893 66.7031 15.9064 66.7031C18.2846 66.7031 20.4288 67.1352 22.3392 67.999C24.2884 68.8629 25.9454 70.0213 27.3098 71.4743C28.6745 72.8879 29.7076 74.5565 30.4094 76.4806C31.1502 78.3656 31.5205 80.3486 31.5205 82.4297C31.5205 82.9009 31.5009 83.3524 31.4621 83.7845C31.423 84.177 31.384 84.5108 31.3449 84.7856H6.8421C6.95906 86.1602 7.27096 87.397 7.77778 88.4965C8.32357 89.5959 9.00584 90.5579 9.82455 91.3827C10.6823 92.1679 11.6374 92.7765 12.6901 93.2086C13.7817 93.6404 14.9123 93.8565 16.0819 93.8565C16.9396 93.8565 17.7778 93.7584 18.5965 93.562C19.4542 93.3263 20.2339 93.0122 20.9357 92.6195C21.6374 92.1877 22.2612 91.6772 22.8071 91.0881C23.3528 90.499 23.7817 89.8511 24.0936 89.1443L29.5907 90.7347C28.538 93.0515 26.7837 94.9558 24.3275 96.4481C21.9103 97.9008 19.0838 98.6274 15.8479 98.6274ZM25.1462 80.3093C25.0292 79.0134 24.6979 77.8159 24.1521 76.7163C23.6452 75.6168 22.9825 74.694 22.1637 73.9479C21.345 73.1627 20.3899 72.554 19.2982 72.122C18.2066 71.6902 17.0565 71.4743 15.8479 71.4743C14.6394 71.4743 13.4893 71.6902 12.3977 72.122C11.345 72.554 10.4094 73.1627 9.59065 73.9479C8.77193 74.694 8.10917 75.6168 7.60233 76.7163C7.09551 77.8159 6.78362 79.0134 6.66667 80.3093H25.1462Z" fill="white"/>
<path d="M52.0946 96.4482C51.2759 96.8407 50.1453 97.2923 48.7028 97.8028C47.2605 98.2741 45.7204 98.5096 44.0831 98.5096C43.0694 98.5096 42.1142 98.3723 41.2174 98.0973C40.3209 97.8225 39.5216 97.4103 38.8199 96.8605C38.1572 96.3107 37.6308 95.6039 37.241 94.74C36.851 93.8369 36.6562 92.7571 36.6562 91.5005V72.24H32.6211V67.2335H36.6562V57.1025H43.0888V67.2335H49.7555V72.24H43.0888V89.4389C43.1669 90.5384 43.4983 91.3434 44.0831 91.8539C44.7067 92.325 45.4669 92.5607 46.3637 92.5607C47.2605 92.5607 48.1182 92.4037 48.9368 92.0896C49.7555 91.7753 50.3597 91.52 50.7496 91.3239L52.0946 96.4482Z" fill="white"/>
<path d="M82.5151 98.0385H76.0823V80.7806C76.0823 77.9535 75.5755 75.8721 74.5619 74.5371C73.5872 73.1628 72.1643 72.4756 70.2929 72.4756C69.3962 72.4756 68.4996 72.6524 67.6029 73.0058C66.7061 73.3592 65.8484 73.8696 65.0297 74.5371C64.2501 75.1656 63.5484 75.9312 62.9245 76.8342C62.3006 77.6983 61.8329 78.6601 61.521 79.7203V98.0385H55.0881V55.041H61.521V73.4181C62.6906 71.2976 64.2695 69.6485 66.2578 68.4703C68.2852 67.2924 70.4879 66.7033 72.8661 66.7033C74.7763 66.7033 76.3357 67.0567 77.5444 67.7635C78.792 68.4312 79.786 69.3342 80.5268 70.4731C81.2676 71.6117 81.7743 72.9469 82.0472 74.4783C82.3592 75.9703 82.5151 77.5608 82.5151 79.2492V98.0385Z" fill="white"/>
<path d="M88.5195 98.0385V67.2335H94.9522V98.0385H88.5195ZM88.5195 62.1681V55.041H94.9522V62.1681H88.5195Z" fill="white"/>
<path d="M99.2324 82.6063C99.2324 80.4468 99.6028 78.4047 100.344 76.4806C101.084 74.5565 102.137 72.8681 103.502 71.4152C104.905 69.9624 106.581 68.8236 108.531 67.999C110.48 67.1352 112.663 66.7031 115.081 66.7031C118.238 66.7031 120.948 67.4099 123.209 68.8236C125.509 70.1979 127.225 72.0436 128.355 74.3604L122.098 76.3629C121.357 75.0672 120.363 74.0659 119.116 73.359C117.868 72.6129 116.484 72.2399 114.964 72.2399C113.677 72.2399 112.468 72.4952 111.338 73.0056C110.246 73.5161 109.291 74.2424 108.472 75.1849C107.654 76.0881 107.01 77.1679 106.542 78.4245C106.075 79.6811 105.841 81.0749 105.841 82.6063C105.841 84.0986 106.075 85.4924 106.542 86.7884C107.049 88.0449 107.712 89.1445 108.531 90.0868C109.388 91.0293 110.363 91.7752 111.455 92.3249C112.585 92.8354 113.774 93.0906 115.022 93.0906C115.802 93.0906 116.581 92.9924 117.361 92.7963C118.141 92.5606 118.843 92.2465 119.466 91.8538C120.129 91.4611 120.694 91.0095 121.162 90.499C121.669 89.9886 122.039 89.4388 122.273 88.8499L128.589 90.7347C127.576 93.0515 125.88 94.9558 123.501 96.4481C121.123 97.9008 118.316 98.6274 115.081 98.6274C112.702 98.6274 110.538 98.1954 108.589 97.3315C106.64 96.4677 104.964 95.3093 103.56 93.8565C102.195 92.3643 101.123 90.6561 100.344 88.732C99.6028 86.8079 99.2324 84.7661 99.2324 82.6063Z" fill="white"/>
<path d="M143.536 98.6274C141.08 98.6274 138.624 98.2347 136.168 97.4495C133.75 96.6247 131.665 95.4663 129.91 93.9743L132.483 89.8511C134.316 91.1863 136.129 92.2072 137.922 92.914C139.715 93.5815 141.548 93.9154 143.419 93.9154C145.329 93.9154 146.83 93.5422 147.922 92.7963C149.053 92.0502 149.618 90.9899 149.618 89.6156C149.618 88.3197 148.994 87.3774 147.747 86.7884C146.499 86.1993 144.55 85.5515 141.899 84.8447C139.988 84.3343 138.351 83.8434 136.986 83.3722C135.622 82.9009 134.511 82.3511 133.653 81.7229C132.795 81.0947 132.171 80.3681 131.782 79.5436C131.392 78.719 131.197 77.7177 131.197 76.5397C131.197 74.969 131.489 73.5749 132.074 72.3577C132.698 71.1404 133.536 70.1195 134.589 69.2949C135.68 68.4311 136.947 67.7831 138.39 67.3511C139.832 66.9193 141.392 66.7031 143.068 66.7031C145.368 66.7031 147.512 67.0565 149.501 67.7634C151.489 68.4702 153.263 69.4911 154.822 70.8263L152.074 74.7138C149.228 72.4363 146.207 71.2974 143.01 71.2974C141.372 71.2974 139.988 71.6509 138.858 72.3577C137.766 73.0252 137.22 74.1052 137.22 75.5972C137.22 76.2254 137.337 76.7556 137.571 77.1874C137.805 77.6195 138.175 77.9924 138.682 78.3068C139.228 78.6209 139.91 78.9154 140.729 79.1902C141.587 79.4259 142.639 79.7006 143.887 80.0147C145.953 80.5252 147.727 81.0356 149.209 81.5463C150.729 82.0568 151.976 82.6654 152.951 83.3722C153.926 84.0397 154.647 84.8447 155.115 85.787C155.583 86.6902 155.817 87.7897 155.817 89.0854C155.817 92.0304 154.706 94.367 152.483 96.0947C150.3 97.7831 147.318 98.6274 143.536 98.6274Z" fill="white"/>
<path d="M142.301 44.9598C146.608 44.9598 150.098 41.4437 150.098 37.1064C150.098 32.769 146.608 29.2529 142.301 29.2529C137.995 29.2529 134.504 32.769 134.504 37.1064C134.504 41.4437 137.995 44.9598 142.301 44.9598Z" fill="#E80000"/>
</svg>
