<svg width="2828" height="837" viewBox="0 0 2828 837" fill="none" xmlns="http://www.w3.org/2000/svg">
<g clip-path="url(#clip0_396_1679)">
<path d="M793.497 110.351H75.8066V827.497H793.497V110.351Z" fill="white"/>
<path d="M70.4982 0C31.7279 0 0 31.7039 0 70.4447V827.692H187.257C149.28 819.28 119.346 806.297 102.316 793.254L139.576 703.88C175.909 727.157 226.207 743.92 281.17 743.92C341.725 743.92 396.689 711.335 396.689 650.826C396.689 609.874 369.67 581.95 309.13 549.349C236.479 510.265 181.516 460.931 181.516 385.526C181.516 265.449 285.835 190.985 412.523 190.985C482.393 190.985 527.099 207.748 552.263 222.629L516.872 311.989C496.373 300.813 454.448 283.139 403.223 284.065C334.294 284.065 295.165 324.091 295.165 365.984C295.165 408.804 330.556 434.86 389.243 467.43C465.632 507.456 511.28 557.716 511.28 634.047C511.28 734.403 445.82 803.742 348.334 827.662H551.201L636.083 374.351H744.141L660.171 827.662H769.663C808.434 827.662 840.162 795.958 840.162 757.217V0H70.4982ZM708.72 309.225H707.792C675.197 309.225 652.829 285.947 652.829 251.509C652.829 213.351 682.643 186.354 718.035 186.354C752.514 186.354 775.794 209.631 775.794 244.069C774.867 284.095 745.053 309.225 708.72 309.225Z" fill="#BA0C2F"/>
<path d="M1071.03 296.197H907.131V200.323H1351.38V296.197H1185.61V827.692H1071.03V296.197Z" fill="white"/>
<path d="M1460.37 309.225C1422.18 309.225 1397.03 281.301 1397.03 247.79C1397.03 212.425 1423.11 185.428 1461.31 185.428C1500.42 185.428 1524.64 212.425 1525.59 247.79C1525.59 281.301 1500.42 309.225 1461.31 309.225H1460.37ZM1403.55 827.692V374.381H1518.12V827.692H1403.55Z" fill="white"/>
<path d="M1615.93 509.354C1615.93 457.226 1614.06 413.48 1612.19 374.381H1710L1715.59 441.404H1718.39C1739.83 406.025 1780.81 364.146 1858.13 364.146C1917.74 364.146 1964.32 397.658 1983.88 447.918H1985.75C2001.58 422.788 2020.21 404.172 2040.71 391.144C2066.78 373.454 2095.67 364.146 2133.86 364.146C2208.36 364.146 2284.77 415.348 2284.77 560.555V827.692H2172.97V577.303C2172.97 501.913 2146.9 457.226 2091.93 457.226C2052.8 457.226 2023.93 485.15 2011.82 517.721C2008.1 527.97 2006.23 542.851 2006.23 555.894V827.692H1894.45V565.202C1894.45 501.898 1869.29 457.226 1816.21 457.226C1773.35 457.226 1744.48 490.738 1733.3 521.456C1729.57 533.558 1727.71 546.586 1727.71 559.614V827.692H1615.93V509.354Z" fill="white"/>
<path d="M2458.96 633.166C2461.75 715.07 2526.02 750.449 2598.68 750.449C2651.79 750.449 2689.05 742.068 2724.44 729.981L2741.2 808.165C2702.09 824.913 2648.07 837.015 2582.85 837.015C2435.66 837.015 2349.03 746.729 2349.03 608.036C2349.03 482.371 2425.41 364.161 2570.74 364.161C2717.91 364.161 2766.35 485.18 2766.35 584.773C2766.35 606.198 2764.48 622.947 2762.63 633.181L2458.96 633.166ZM2658.3 553.099C2659.22 511.206 2640.59 442.33 2564.22 442.33C2493.42 442.33 2463.61 506.56 2458.96 553.099H2658.3Z" fill="white"/>
<path d="M2794.76 369.375C2813.21 369.375 2828 383.942 2828 402.005C2828 420.457 2813.23 435.024 2794.57 435.024C2775.71 435.024 2760.57 420.457 2760.57 402.005C2760.57 383.942 2775.73 369.375 2794.57 369.375H2794.76ZM2794.18 376.965C2780.38 376.965 2769.88 388.036 2769.88 402.214C2769.88 416.199 2780.38 427.464 2794.37 427.464C2808.38 427.658 2818.67 416.199 2818.67 402.214C2818.67 388.036 2808.38 376.965 2794.37 376.965H2794.18ZM2789.9 418.335H2781.16V387.065C2783.68 386.482 2788.33 385.899 2794.18 385.899C2800.77 385.899 2803.7 386.87 2805.84 388.424C2807.78 389.59 2809.14 391.92 2809.14 395.028C2809.14 398.524 2806.23 401.243 2802.34 402.409V402.797C2805.65 403.962 2807.4 406.487 2808.37 410.76C2809.32 415.228 2809.92 417.17 2810.51 418.335H2801.18C2800.2 417.17 2799.62 414.451 2798.84 411.149C2798.26 407.847 2796.51 406.487 2793.01 406.487H2789.9V418.335ZM2790.1 400.451H2793.21C2796.9 400.451 2799.64 399.092 2799.64 396.178C2799.64 393.459 2797.68 391.905 2793.61 391.905C2792.04 391.905 2790.87 392.1 2790.11 392.1V400.451H2790.1Z" fill="white"/>
</g>
<defs>
<clipPath id="clip0_396_1679">
<rect width="2828" height="837" fill="white"/>
</clipPath>
</defs>
</svg>
